<svg id="svg" version="1.1" xmlns="http://www.w3.org/2000/svg" xmlns:xlink="http://www.w3.org/1999/xlink" width="400" height="400" viewBox="0, 0, 400,400"><g id="svgg"><path id="path0" d="M138.486 141.447 C 136.670 143.263,136.679 143.327,140.184 153.501 C 141.952 158.634,143.596 163.433,143.837 164.167 C 144.079 164.900,145.571 169.250,147.154 173.833 C 148.736 178.417,151.003 185.017,152.190 188.500 C 156.656 201.603,156.711 201.709,159.167 202.187 C 161.592 202.659,162.454 201.456,166.049 192.591 C 167.333 189.424,168.590 186.383,168.842 185.833 C 169.094 185.283,170.421 182.058,171.791 178.667 C 173.160 175.275,174.742 171.375,175.306 170.000 C 175.870 168.625,176.332 167.462,176.332 167.417 C 176.342 166.684,177.099 167.860,177.834 169.750 C 178.727 172.047,179.661 174.343,185.059 187.500 C 186.337 190.617,187.997 194.667,188.748 196.500 C 190.849 201.632,192.133 202.771,194.835 201.899 C 196.729 201.288,196.587 201.532,198.853 195.000 C 202.808 183.605,205.146 176.842,206.230 173.667 C 206.887 171.742,208.087 168.292,208.897 166.000 C 210.351 161.886,213.092 153.928,215.012 148.245 C 216.819 142.901,215.919 140.370,212.203 140.344 C 209.378 140.325,209.225 140.617,204.179 155.667 C 194.440 184.712,193.477 187.498,193.194 187.438 C 192.830 187.363,192.608 186.834,187.828 174.667 C 178.891 151.921,179.629 153.333,176.684 153.333 C 174.485 153.333,173.628 154.309,172.000 158.667 C 171.623 159.675,171.183 160.800,171.023 161.167 C 170.862 161.533,170.102 163.408,169.333 165.333 C 167.237 170.587,165.960 173.756,165.641 174.500 C 165.483 174.867,164.314 177.817,163.042 181.057 C 160.014 188.769,160.181 188.509,159.558 186.483 C 159.278 185.576,158.197 182.358,157.155 179.333 C 156.113 176.308,154.011 170.158,152.485 165.667 C 143.328 138.729,144.051 140.333,141.068 140.333 C 139.848 140.333,139.412 140.522,138.486 141.447 M225.883 141.208 C 224.355 142.736,224.337 143.092,224.336 171.667 C 224.334 196.865,224.377 198.918,224.917 200.000 C 226.225 202.618,229.722 202.928,231.400 200.575 C 232.163 199.505,232.167 199.446,232.265 186.750 L 232.363 174.000 248.265 174.000 L 264.167 174.000 264.071 186.083 C 263.952 200.993,264.227 202.091,268.084 202.091 C 272.073 202.091,271.960 202.984,271.979 171.333 C 271.999 139.426,272.111 140.333,268.147 140.333 C 264.366 140.333,263.975 141.805,264.009 155.931 L 264.035 166.833 248.184 166.920 L 232.333 167.006 232.330 155.920 C 232.328 149.822,232.231 144.261,232.116 143.562 C 231.622 140.574,227.917 139.174,225.883 141.208 M303.846 141.083 C 303.257 141.598,301.990 144.291,299.807 149.667 C 294.431 162.902,292.975 166.445,292.309 167.913 C 291.955 168.690,291.667 169.399,291.667 169.488 C 291.667 169.668,284.833 186.448,284.331 187.500 C 279.822 196.955,279.391 201.036,282.802 201.991 C 285.830 202.839,286.244 202.302,290.183 192.417 L 293.138 185.000 306.057 185.000 C 318.155 185.000,318.997 185.038,319.298 185.600 C 319.474 185.930,320.769 189.040,322.175 192.511 C 326.116 202.237,326.673 202.936,329.750 202.014 C 332.590 201.163,332.936 198.938,330.969 194.153 C 330.219 192.327,328.506 188.133,327.162 184.833 C 321.883 171.872,321.311 170.477,321.006 169.833 C 320.832 169.467,319.776 166.917,318.659 164.167 C 309.682 142.057,309.458 141.551,308.361 140.903 C 306.970 140.081,304.898 140.164,303.846 141.083 M332.359 141.359 C 331.168 142.550,330.993 144.155,331.888 145.670 C 332.816 147.241,333.418 147.333,342.682 147.333 L 351.333 147.333 351.333 173.505 L 351.333 199.676 352.417 200.821 C 354.059 202.556,356.234 202.552,357.877 200.810 L 359.000 199.619 359.000 173.476 L 359.000 147.333 367.810 147.333 L 376.619 147.333 377.854 146.169 C 379.373 144.736,379.352 142.919,377.798 141.296 L 376.875 140.333 355.130 140.333 L 333.385 140.333 332.359 141.359 M306.665 154.750 C 306.892 155.346,307.271 156.283,307.507 156.833 C 308.360 158.825,316.000 177.690,316.000 177.807 C 316.000 177.821,311.575 177.833,306.167 177.833 C 299.561 177.833,296.333 177.719,296.333 177.486 C 296.333 177.165,298.959 170.357,299.670 168.833 C 299.842 168.467,300.293 167.342,300.673 166.333 C 301.053 165.325,301.559 164.050,301.798 163.500 C 302.037 162.950,303.043 160.514,304.033 158.086 C 306.005 153.252,306.065 153.175,306.665 154.750 M191.500 213.873 C 169.801 217.775,168.133 252.460,189.328 259.028 C 206.196 264.255,221.013 249.680,217.535 231.281 C 215.172 218.776,204.376 211.557,191.500 213.873 M138.417 214.330 C 137.241 215.046,137.019 215.990,137.860 216.689 C 138.171 216.947,138.326 217.447,138.237 217.908 C 137.944 219.441,138.886 219.667,145.574 219.667 L 151.667 219.667 151.667 238.350 C 151.667 258.821,151.636 258.492,153.629 259.318 C 154.854 259.825,156.392 259.523,157.215 258.613 C 157.800 257.968,157.838 256.887,157.925 238.799 L 158.016 219.667 163.801 219.667 C 171.256 219.667,172.687 219.145,172.656 216.439 C 172.625 213.727,172.232 213.666,154.728 213.668 C 140.135 213.669,139.455 213.697,138.417 214.330 M243.133 214.143 C 241.617 214.803,241.667 214.034,241.667 236.798 C 241.667 260.334,241.527 258.957,243.973 259.494 C 247.163 260.195,247.656 258.825,247.662 249.250 L 247.667 241.333 253.984 241.333 C 261.016 241.333,263.058 241.035,265.500 239.651 C 275.926 233.741,273.993 216.858,262.582 214.167 C 259.731 213.495,244.665 213.476,243.133 214.143 M280.364 214.030 C 278.634 214.721,278.689 213.990,278.677 236.750 C 278.667 257.360,278.686 258.020,279.315 258.648 C 280.307 259.641,281.321 259.708,293.557 259.600 L 304.947 259.500 305.823 258.677 C 307.133 257.446,306.921 255.471,305.367 254.428 C 304.252 253.678,304.086 253.667,294.451 253.667 L 284.667 253.667 284.656 234.583 C 284.645 214.008,284.706 214.712,282.868 214.013 C 281.786 213.602,281.428 213.604,280.364 214.030 M325.484 214.044 C 324.548 214.498,324.242 215.054,322.352 219.747 C 321.446 221.995,319.865 225.858,318.838 228.333 C 317.811 230.808,315.922 235.458,314.639 238.667 C 313.356 241.875,312.090 244.950,311.825 245.500 C 306.850 255.810,306.663 260.367,311.249 259.507 C 312.416 259.288,313.222 258.054,314.678 254.257 C 315.049 253.291,315.499 252.200,315.679 251.833 C 315.859 251.467,316.351 250.267,316.773 249.167 L 317.540 247.167 326.853 247.099 L 336.167 247.031 338.277 252.338 C 341.065 259.349,342.043 260.420,344.665 259.334 C 346.889 258.413,346.843 256.604,344.456 251.044 C 343.160 248.026,341.223 243.317,340.492 241.410 C 340.052 240.260,339.473 238.835,339.206 238.243 C 337.858 235.253,330.333 216.681,330.333 216.344 C 330.333 214.752,327.142 213.238,325.484 214.044 M346.120 214.148 C 343.821 215.149,343.970 217.341,346.577 220.865 C 347.268 221.800,348.580 223.600,349.492 224.865 C 350.404 226.131,352.584 229.117,354.337 231.500 C 356.089 233.883,357.780 236.241,358.095 236.738 C 358.601 237.540,358.667 238.753,358.667 247.338 C 358.667 258.150,358.754 258.647,360.764 259.310 C 361.574 259.578,362.162 259.576,362.946 259.302 C 364.911 258.617,364.999 258.099,365.007 247.267 L 365.013 237.500 367.857 233.667 C 369.422 231.558,371.056 229.308,371.489 228.667 C 371.922 228.025,373.786 225.475,375.631 223.000 C 380.080 217.031,380.214 213.990,376.034 213.880 C 374.281 213.835,374.240 213.878,369.028 221.366 C 366.935 224.373,364.478 227.852,363.569 229.098 L 361.915 231.363 359.874 228.560 C 358.752 227.019,356.697 224.200,355.309 222.296 C 353.920 220.391,352.141 217.891,351.356 216.740 C 349.391 213.860,348.170 213.256,346.120 214.148 M200.614 220.149 C 208.754 222.315,213.287 231.465,211.170 241.455 C 207.694 257.862,184.644 257.890,181.171 241.492 C 178.222 227.570,188.033 216.800,200.614 220.149 M262.263 220.301 C 266.447 222.447,267.409 228.669,264.245 233.122 C 262.894 235.023,261.558 235.318,254.250 235.326 L 247.667 235.333 247.667 227.500 L 247.667 219.667 254.347 219.667 C 260.257 219.667,261.169 219.740,262.263 220.301 M330.646 233.823 C 332.124 237.484,333.333 240.591,333.333 240.726 C 333.333 240.862,330.335 241.017,326.670 241.070 C 319.262 241.177,319.678 241.325,320.831 239.000 C 321.059 238.542,322.244 235.617,323.465 232.500 C 324.686 229.383,325.922 226.308,326.211 225.667 L 326.738 224.500 327.349 225.833 C 327.684 226.567,329.168 230.162,330.646 233.823 " stroke="none" fill="#6c7473" fill-rule="evenodd"></path><path id="path1" d="M34.973 130.765 C 29.283 132.705,27.545 135.778,27.392 144.172 C 27.115 159.355,30.418 163.381,50.500 172.339 C 59.586 176.392,59.662 176.553,59.665 191.867 C 59.668 207.511,60.293 206.504,46.705 212.743 C 33.943 218.603,30.661 221.522,28.239 229.167 C 27.003 233.068,27.124 244.453,28.428 246.928 C 31.716 253.168,35.467 254.168,47.500 252.015 C 62.279 249.370,64.243 249.023,74.000 247.329 C 94.554 243.760,94.738 243.704,98.539 239.829 C 102.777 235.510,103.335 233.202,103.328 220.013 C 103.322 207.562,102.929 205.344,100.141 202.030 C 99.032 200.712,98.903 200.809,102.834 200.000 C 107.709 198.997,109.667 197.305,109.667 194.096 L 109.667 193.000 117.917 193.007 C 128.599 193.017,130.389 193.760,130.389 198.190 C 130.389 202.235,128.192 203.333,120.099 203.333 C 114.159 203.333,114.051 203.346,112.288 204.262 C 106.657 207.188,106.704 215.299,112.368 218.122 L 114.131 219.000 125.887 219.000 C 138.864 219.000,139.464 218.880,137.881 216.598 C 137.855 216.560,132.556 216.448,126.107 216.348 C 114.881 216.174,114.341 216.137,113.440 215.469 C 110.097 212.990,110.213 208.587,113.671 206.758 C 115.009 206.051,115.508 206.000,121.136 205.997 C 130.446 205.992,133.950 203.445,133.214 197.216 C 132.539 191.492,130.025 190.333,118.284 190.333 L 109.667 190.333 109.667 189.219 C 109.667 186.052,107.665 184.327,102.834 183.333 C 98.869 182.518,99.026 182.653,100.247 181.099 C 103.013 177.580,103.323 175.803,103.323 163.500 C 103.323 148.600,101.635 144.211,94.456 140.441 C 92.566 139.449,91.428 139.123,87.167 138.358 C 82.433 137.507,77.449 136.626,72.000 135.676 C 68.792 135.117,63.617 134.204,60.500 133.648 C 57.383 133.092,52.658 132.263,50.000 131.806 C 47.342 131.349,43.988 130.756,42.547 130.487 C 39.011 129.830,37.561 129.883,34.973 130.765 M51.000 134.815 C 56.775 135.821,65.775 137.402,71.000 138.329 C 76.225 139.255,82.654 140.392,85.286 140.855 C 92.118 142.056,93.730 142.760,96.766 145.870 C 99.963 149.145,100.663 152.286,100.658 163.333 C 100.651 175.060,100.228 176.851,96.468 181.066 C 93.244 184.678,93.167 184.927,93.167 191.667 C 93.167 198.387,93.495 199.437,96.500 202.333 C 100.191 205.890,100.809 208.855,100.585 221.935 C 100.396 232.941,99.642 235.457,95.519 238.835 C 92.695 241.150,91.643 241.437,76.000 244.165 C 63.889 246.276,61.367 246.721,54.167 248.009 C 36.331 251.202,35.672 251.199,32.595 247.886 C 28.949 243.960,29.018 231.973,32.722 226.133 C 35.753 221.353,37.957 219.802,48.500 215.027 C 62.434 208.716,62.385 208.792,62.584 193.000 C 62.801 175.741,62.330 174.732,51.776 169.857 C 37.637 163.326,36.234 162.440,33.440 158.263 C 28.892 151.462,28.627 139.157,32.946 135.255 C 35.023 133.378,37.413 132.528,39.667 132.863 C 40.125 132.931,45.225 133.810,51.000 134.815 M72.808 145.799 C 61.210 148.089,56.345 162.025,63.953 171.163 C 71.087 179.732,85.095 177.953,89.864 167.873 C 95.415 156.138,85.491 143.294,72.808 145.799 M81.040 149.396 C 90.920 153.935,91.171 167.722,81.463 172.610 C 71.776 177.487,60.421 167.847,63.615 157.456 C 65.867 150.127,74.220 146.263,81.040 149.396 M75.000 153.326 C 74.632 153.559,74.469 154.435,74.384 156.654 L 74.267 159.667 71.508 159.667 C 68.515 159.667,67.859 159.996,68.058 161.398 C 68.161 162.129,68.317 162.171,71.250 162.263 L 74.333 162.358 74.333 165.034 C 74.333 168.048,74.680 169.000,75.778 169.000 C 77.078 169.000,77.333 168.387,77.333 165.267 L 77.333 162.333 80.322 162.333 C 82.935 162.333,83.353 162.252,83.655 161.689 C 84.455 160.193,83.541 159.667,80.143 159.667 L 77.333 159.667 77.333 156.857 C 77.333 153.432,76.597 152.317,75.000 153.326 M101.667 186.015 C 106.548 187.033,106.668 187.168,106.662 191.641 C 106.655 196.380,106.695 196.336,101.175 197.505 C 96.434 198.509,96.855 198.511,96.387 197.484 C 95.225 194.934,96.103 184.795,97.458 185.117 C 97.848 185.210,99.742 185.614,101.667 186.015 M74.678 185.978 C 73.867 187.495,74.514 189.667,75.778 189.667 C 76.884 189.667,77.333 189.040,77.333 187.500 C 77.333 185.446,75.520 184.406,74.678 185.978 M74.678 194.311 C 73.867 195.828,74.514 198.000,75.778 198.000 C 76.884 198.000,77.333 197.374,77.333 195.833 C 77.333 193.779,75.520 192.739,74.678 194.311 M73.885 207.820 C 67.520 210.089,69.088 219.429,75.833 219.429 C 81.521 219.429,84.046 212.570,79.704 208.916 C 77.934 207.427,76.006 207.063,73.885 207.820 M78.026 211.308 C 80.030 213.312,78.657 216.667,75.833 216.667 C 74.140 216.667,72.667 215.194,72.667 213.500 C 72.667 211.806,74.140 210.333,75.833 210.333 C 76.735 210.333,77.304 210.586,78.026 211.308 M147.606 213.583 C 151.698 213.636,158.298 213.636,162.273 213.583 C 166.248 213.530,162.900 213.486,154.833 213.486 C 146.767 213.487,143.514 213.530,147.606 213.583 M248.398 213.582 C 250.359 213.641,253.659 213.641,255.732 213.582 C 257.804 213.524,256.200 213.476,252.167 213.475 C 248.133 213.475,246.438 213.523,248.398 213.582 M284.822 235.000 C 284.822 245.175,284.865 249.337,284.916 244.250 C 284.968 239.162,284.968 230.837,284.916 225.750 C 284.865 220.662,284.822 224.825,284.822 235.000 M62.470 218.630 C 57.710 221.533,58.672 228.267,64.052 229.706 C 69.054 231.044,73.085 225.740,70.667 221.001 C 69.302 218.326,65.007 217.083,62.470 218.630 M83.112 218.838 C 79.137 221.221,79.539 227.430,83.795 229.362 C 88.296 231.407,92.931 227.812,92.187 222.852 C 91.577 218.787,86.756 216.654,83.112 218.838 M158.155 238.000 C 158.155 247.992,158.198 252.079,158.250 247.083 C 158.302 242.087,158.302 233.912,158.250 228.917 C 158.198 223.921,158.155 228.008,158.155 238.000 M67.750 222.004 C 69.283 223.687,68.749 225.910,66.596 226.816 C 62.970 228.340,60.486 223.090,63.925 221.173 C 65.175 220.476,66.650 220.797,67.750 222.004 M88.268 221.496 C 90.160 223.088,89.738 225.920,87.469 226.868 C 84.218 228.226,81.601 224.332,84.091 221.842 C 85.530 220.404,86.841 220.295,88.268 221.496 M73.667 228.707 C 70.280 230.053,68.922 234.268,70.827 237.519 C 72.978 241.189,78.497 241.257,80.889 237.642 C 84.071 232.835,79.015 226.580,73.667 228.707 M78.170 232.398 C 80.396 235.043,77.668 238.648,74.559 237.172 C 71.987 235.952,72.092 232.630,74.738 231.518 C 76.090 230.949,77.188 231.231,78.170 232.398 M287.250 259.916 C 290.229 259.971,295.104 259.971,298.083 259.916 C 301.063 259.861,298.625 259.816,292.667 259.816 C 286.708 259.816,284.271 259.861,287.250 259.916 " stroke="none" fill="#143463" fill-rule="evenodd"></path><path id="path2" d="M240.606 166.916 C 244.881 166.969,251.781 166.969,255.940 166.916 C 260.098 166.863,256.600 166.820,248.167 166.820 C 239.733 166.820,236.331 166.864,240.606 166.916 M322.250 247.249 C 324.679 247.306,328.654 247.306,331.083 247.249 C 333.512 247.192,331.525 247.146,326.667 247.146 C 321.808 247.146,319.821 247.192,322.250 247.249 " stroke="none" fill="#547868" fill-rule="evenodd"></path><path id="path3" d="M240.606 166.916 C 244.881 166.969,251.781 166.969,255.940 166.916 C 260.098 166.863,256.600 166.820,248.167 166.820 C 239.733 166.820,236.331 166.864,240.606 166.916 M322.250 247.249 C 324.679 247.306,328.654 247.306,331.083 247.249 C 333.512 247.192,331.525 247.146,326.667 247.146 C 321.808 247.146,319.821 247.192,322.250 247.249 " stroke="none" fill="#547868" fill-rule="evenodd"></path><path id="path4" d="M240.606 166.916 C 244.881 166.969,251.781 166.969,255.940 166.916 C 260.098 166.863,256.600 166.820,248.167 166.820 C 239.733 166.820,236.331 166.864,240.606 166.916 M322.250 247.249 C 324.679 247.306,328.654 247.306,331.083 247.249 C 333.512 247.192,331.525 247.146,326.667 247.146 C 321.808 247.146,319.821 247.192,322.250 247.249 " stroke="none" fill="#547868" fill-rule="evenodd"></path></g></svg>