<svg id="svg" version="1.1" xmlns="http://www.w3.org/2000/svg" xmlns:xlink="http://www.w3.org/1999/xlink" width="400" height="400" viewBox="0, 0, 400,400"><g id="svgg"><path id="path0" d="M27.424 146.333 C 27.424 147.158,27.489 147.496,27.569 147.083 C 27.648 146.671,27.648 145.996,27.569 145.583 C 27.489 145.171,27.424 145.508,27.424 146.333 M29.751 146.167 C 29.754 146.900,29.823 147.161,29.902 146.746 C 29.982 146.331,29.979 145.731,29.896 145.413 C 29.812 145.094,29.747 145.433,29.751 146.167 M74.445 157.000 C 74.445 158.375,74.504 158.938,74.576 158.250 C 74.648 157.563,74.648 156.438,74.576 155.750 C 74.504 155.063,74.445 155.625,74.445 157.000 M77.112 157.000 C 77.112 158.375,77.171 158.938,77.243 158.250 C 77.315 157.563,77.315 156.438,77.243 155.750 C 77.171 155.063,77.112 155.625,77.112 157.000 M74.450 165.000 C 74.450 166.558,74.507 167.196,74.577 166.417 C 74.648 165.637,74.648 164.362,74.577 163.583 C 74.507 162.804,74.450 163.442,74.450 165.000 M77.120 165.333 C 77.120 167.075,77.176 167.787,77.245 166.917 C 77.314 166.046,77.314 164.621,77.245 163.750 C 77.176 162.879,77.120 163.592,77.120 165.333 M74.411 187.333 C 74.411 187.975,74.479 188.237,74.563 187.917 C 74.647 187.596,74.647 187.071,74.563 186.750 C 74.479 186.429,74.411 186.692,74.411 187.333 M77.084 187.833 C 77.088 188.567,77.156 188.827,77.236 188.413 C 77.315 187.998,77.312 187.398,77.229 187.079 C 77.146 186.761,77.080 187.100,77.084 187.833 M93.095 189.500 C 93.098 190.417,93.163 190.752,93.239 190.245 C 93.316 189.739,93.314 188.989,93.235 188.579 C 93.156 188.169,93.093 188.583,93.095 189.500 M95.794 191.833 C 95.795 194.033,95.849 194.890,95.914 193.737 C 95.979 192.584,95.979 190.784,95.913 189.737 C 95.847 188.690,95.793 189.633,95.794 191.833 M106.744 190.000 C 106.744 190.642,106.813 190.904,106.896 190.583 C 106.980 190.262,106.980 189.737,106.896 189.417 C 106.813 189.096,106.744 189.358,106.744 190.000 M93.103 193.500 C 93.105 194.600,93.167 195.010,93.242 194.411 C 93.316 193.812,93.314 192.912,93.238 192.411 C 93.162 191.910,93.101 192.400,93.103 193.500 M106.751 192.833 C 106.754 193.567,106.823 193.827,106.902 193.413 C 106.982 192.998,106.979 192.398,106.896 192.079 C 106.812 191.761,106.747 192.100,106.751 192.833 M74.411 195.667 C 74.411 196.308,74.479 196.571,74.563 196.250 C 74.647 195.929,74.647 195.404,74.563 195.083 C 74.479 194.762,74.411 195.025,74.411 195.667 M147.606 213.583 C 151.698 213.636,158.298 213.636,162.273 213.583 C 166.248 213.530,162.900 213.486,154.833 213.486 C 146.767 213.487,143.514 213.530,147.606 213.583 M248.398 213.582 C 250.359 213.641,253.659 213.641,255.732 213.582 C 257.804 213.524,256.200 213.476,252.167 213.475 C 248.133 213.475,246.438 213.523,248.398 213.582 M88.167 226.542 C 87.567 227.052,87.445 227.254,87.861 227.048 C 88.472 226.744,89.618 225.647,89.291 225.679 C 89.223 225.685,88.717 226.074,88.167 226.542 M27.453 238.667 C 27.453 240.408,27.510 241.121,27.578 240.250 C 27.647 239.379,27.647 237.954,27.578 237.083 C 27.510 236.213,27.453 236.925,27.453 238.667 M287.250 259.916 C 290.229 259.971,295.104 259.971,298.083 259.916 C 301.063 259.861,298.625 259.816,292.667 259.816 C 286.708 259.816,284.271 259.861,287.250 259.916 " stroke="none" fill="#fbfbf4" fill-rule="evenodd"></path><path id="path1" d="M139.500 140.726 C 138.450 141.313,137.818 142.086,137.393 143.305 C 136.916 144.674,136.911 144.761,137.330 144.502 C 137.511 144.390,137.580 144.505,137.483 144.758 C 137.386 145.010,137.608 145.920,137.977 146.779 C 138.345 147.639,138.639 148.377,138.629 148.421 C 138.553 148.771,139.118 150.300,139.286 150.197 C 139.404 150.124,139.539 150.600,139.587 151.253 C 139.635 151.907,139.814 152.609,139.984 152.814 C 140.155 153.020,140.371 153.611,140.465 154.129 C 140.558 154.647,140.905 155.291,141.234 155.560 C 141.564 155.829,141.630 155.945,141.381 155.816 C 140.866 155.551,141.076 156.494,141.884 158.083 C 142.141 158.587,142.253 159.000,142.134 159.000 C 142.016 159.000,142.105 159.225,142.333 159.500 C 142.562 159.775,142.625 160.000,142.474 160.000 C 142.323 160.000,142.380 160.180,142.600 160.400 C 142.820 160.620,143.000 161.070,143.000 161.400 C 143.000 161.730,143.159 162.000,143.353 162.000 C 143.547 162.000,143.627 162.128,143.530 162.284 C 143.316 162.631,144.192 165.415,145.039 167.079 C 145.201 167.397,145.333 167.874,145.333 168.138 C 145.333 168.403,145.569 168.855,145.857 169.143 C 146.145 169.431,146.217 169.667,146.016 169.667 C 145.789 169.667,145.837 169.951,146.143 170.417 C 146.413 170.829,146.626 171.242,146.617 171.333 C 146.556 171.920,147.841 175.613,148.289 176.141 C 148.721 176.649,148.730 176.722,148.333 176.493 C 147.902 176.245,147.896 176.283,148.291 176.769 C 148.542 177.080,148.651 177.333,148.532 177.333 C 148.413 177.333,148.548 177.782,148.832 178.330 C 149.115 178.878,149.349 179.440,149.352 179.580 C 149.368 180.442,150.155 182.277,150.434 182.104 C 150.619 181.990,150.667 182.062,150.543 182.265 C 150.418 182.467,150.629 183.502,151.012 184.566 C 151.396 185.630,151.784 186.870,151.874 187.323 C 151.965 187.776,152.167 188.301,152.323 188.490 C 152.479 188.679,152.712 189.396,152.841 190.083 C 152.969 190.771,153.220 191.333,153.398 191.333 C 153.576 191.333,153.655 191.521,153.573 191.750 C 153.491 191.979,153.583 192.467,153.779 192.833 C 153.974 193.200,154.183 193.793,154.242 194.152 C 154.302 194.511,154.534 194.921,154.758 195.064 C 154.983 195.206,155.062 195.325,154.935 195.328 C 154.656 195.334,155.524 198.395,156.234 199.914 C 156.512 200.508,156.873 200.912,157.037 200.811 C 157.200 200.710,157.333 200.836,157.333 201.091 C 157.333 201.962,159.436 202.313,160.819 201.673 C 161.868 201.188,163.431 199.230,163.692 198.075 C 163.722 197.942,163.879 197.486,164.040 197.062 C 164.201 196.637,164.333 196.150,164.333 195.978 C 164.333 195.807,164.499 195.667,164.702 195.667 C 164.905 195.667,164.985 195.442,164.879 195.167 C 164.774 194.892,164.821 194.667,164.984 194.667 C 165.307 194.667,166.524 191.422,166.452 190.750 C 166.427 190.521,166.510 190.333,166.635 190.333 C 166.908 190.333,168.203 187.280,168.083 186.918 C 168.038 186.780,168.150 186.667,168.333 186.667 C 168.517 186.667,168.667 186.382,168.667 186.034 C 168.667 185.686,169.040 184.749,169.496 183.951 C 169.952 183.153,170.327 182.196,170.329 181.824 C 170.332 181.452,170.532 180.852,170.774 180.491 C 171.016 180.129,171.414 179.308,171.657 178.667 C 172.296 176.983,172.807 175.781,173.923 173.333 C 174.466 172.142,175.020 170.792,175.154 170.333 C 175.645 168.646,176.456 167.036,176.729 167.205 C 177.214 167.505,178.248 169.814,178.093 170.250 C 178.011 170.479,178.095 170.667,178.279 170.667 C 178.463 170.667,178.720 171.149,178.849 171.739 C 178.979 172.329,179.205 173.041,179.351 173.322 C 179.574 173.749,179.881 174.506,180.167 175.333 C 180.276 175.651,180.767 176.839,181.269 178.000 C 181.546 178.642,181.787 179.274,181.803 179.406 C 181.820 179.537,182.068 179.920,182.356 180.255 C 182.643 180.591,182.824 181.027,182.758 181.225 C 182.692 181.423,182.996 182.391,183.434 183.376 C 183.871 184.361,184.426 185.692,184.666 186.333 C 184.906 186.975,185.333 187.688,185.615 187.917 C 185.920 188.165,185.970 188.333,185.738 188.333 C 185.444 188.333,185.440 188.537,185.723 189.156 C 185.929 189.609,186.188 189.923,186.299 189.855 C 186.409 189.787,186.522 190.101,186.549 190.554 C 186.577 191.007,186.877 191.603,187.216 191.880 C 187.556 192.156,187.608 192.268,187.333 192.127 C 186.903 191.908,186.897 191.950,187.291 192.436 C 187.542 192.746,187.625 193.000,187.474 193.000 C 187.323 193.000,187.380 193.180,187.600 193.400 C 187.820 193.620,188.000 194.079,188.000 194.420 C 188.000 194.760,188.136 194.955,188.302 194.853 C 188.468 194.750,188.526 194.966,188.430 195.333 C 188.334 195.700,188.398 196.000,188.572 196.000 C 188.746 196.000,188.892 196.188,188.896 196.417 C 188.900 196.646,189.174 197.433,189.503 198.167 C 189.833 198.900,190.089 199.585,190.072 199.689 C 190.055 199.793,190.407 200.304,190.854 200.824 C 191.301 201.345,191.667 201.654,191.667 201.511 C 191.667 201.368,191.862 201.414,192.102 201.613 C 194.149 203.312,197.975 200.113,198.074 196.620 C 198.089 196.108,198.205 195.754,198.332 195.832 C 198.459 195.911,198.722 195.455,198.917 194.820 C 199.182 193.955,199.174 193.722,198.886 193.890 C 198.674 194.014,198.769 193.808,199.097 193.432 C 199.426 193.057,199.657 192.619,199.612 192.458 C 199.567 192.298,199.765 191.717,200.053 191.167 C 200.340 190.617,200.907 189.117,201.312 187.833 C 201.717 186.550,202.207 185.173,202.402 184.772 C 202.596 184.372,202.662 183.802,202.548 183.505 C 202.434 183.208,202.474 183.047,202.636 183.147 C 202.991 183.367,203.413 182.398,203.148 181.970 C 203.045 181.803,203.095 181.667,203.258 181.667 C 203.422 181.667,203.563 181.479,203.573 181.250 C 203.582 181.021,203.834 180.271,204.133 179.583 C 204.522 178.687,204.562 178.333,204.274 178.333 C 204.053 178.333,204.151 178.130,204.490 177.882 C 204.909 177.576,205.031 177.229,204.870 176.808 C 204.739 176.467,204.741 176.296,204.874 176.430 C 205.159 176.714,205.953 174.743,206.324 172.833 C 206.467 172.100,206.609 171.650,206.641 171.833 C 206.672 172.017,207.082 170.967,207.551 169.500 C 208.020 168.033,208.521 166.683,208.664 166.500 C 208.806 166.317,209.044 165.642,209.193 165.000 C 209.341 164.358,209.480 163.758,209.501 163.667 C 209.523 163.575,209.800 162.905,210.117 162.178 C 210.434 161.451,210.733 160.592,210.782 160.270 C 210.831 159.948,210.976 159.580,211.103 159.453 C 211.229 159.326,211.333 158.946,211.333 158.607 C 211.333 158.269,211.610 157.357,211.948 156.580 C 212.956 154.264,213.390 152.695,213.136 152.284 C 212.988 152.043,213.043 151.987,213.282 152.135 C 213.657 152.367,213.760 152.104,213.756 150.924 C 213.756 150.608,213.860 150.413,213.988 150.493 C 214.429 150.765,215.832 145.853,215.815 144.099 C 215.799 142.422,214.963 140.778,214.327 141.171 C 214.188 141.256,213.890 141.103,213.664 140.830 C 213.021 140.055,210.848 140.201,209.883 141.083 C 208.972 141.916,207.190 146.145,207.457 146.841 C 207.550 147.085,207.435 147.444,207.201 147.638 C 206.759 148.005,205.968 150.251,205.801 151.612 C 205.749 152.040,205.460 152.765,205.160 153.224 C 204.859 153.683,204.690 154.135,204.784 154.229 C 204.878 154.323,204.666 154.954,204.313 155.631 C 203.959 156.309,203.637 157.269,203.596 157.765 C 203.555 158.261,203.413 158.667,203.281 158.667 C 203.149 158.667,202.940 159.342,202.816 160.167 C 202.692 160.992,202.441 161.667,202.257 161.667 C 202.073 161.667,201.993 162.037,202.080 162.490 C 202.166 162.943,202.109 163.234,201.952 163.137 C 201.795 163.040,201.667 163.120,201.667 163.314 C 201.667 163.952,201.611 164.154,201.114 165.333 C 200.099 167.741,199.357 170.102,199.529 170.380 C 199.626 170.538,199.556 170.667,199.372 170.667 C 199.189 170.667,199.097 170.971,199.168 171.342 C 199.240 171.714,199.156 171.930,198.983 171.823 C 198.710 171.654,198.516 172.457,198.750 172.782 C 198.796 172.846,198.636 173.135,198.395 173.426 C 198.154 173.716,197.944 174.414,197.928 174.977 C 197.912 175.540,197.783 176.000,197.642 176.000 C 197.382 176.000,196.768 177.610,196.503 178.985 C 196.423 179.397,196.184 179.944,195.972 180.201 C 195.673 180.561,195.689 180.668,196.043 180.672 C 196.346 180.675,196.377 180.759,196.136 180.922 C 195.567 181.305,194.567 184.235,194.849 184.693 C 195.012 184.956,194.965 185.018,194.718 184.865 C 194.377 184.654,194.165 185.265,194.294 186.083 C 194.316 186.221,194.183 186.333,194.000 186.333 C 193.817 186.333,193.684 186.446,193.706 186.583 C 193.892 187.761,193.626 188.474,193.206 187.922 C 192.965 187.604,192.662 187.449,192.533 187.578 C 192.404 187.707,192.407 187.530,192.539 187.185 C 192.706 186.751,192.661 186.631,192.394 186.796 C 192.146 186.949,192.075 186.859,192.196 186.544 C 192.299 186.275,192.136 185.675,191.832 185.211 C 191.528 184.748,191.274 184.248,191.267 184.101 C 191.254 183.835,190.840 182.623,190.436 181.667 C 190.152 180.996,190.091 180.759,190.042 180.147 C 190.019 179.861,189.864 179.711,189.698 179.814 C 189.532 179.917,189.474 179.701,189.570 179.334 C 189.678 178.922,189.580 178.667,189.317 178.667 C 189.081 178.667,188.982 178.573,189.097 178.459 C 189.211 178.344,188.997 177.648,188.622 176.912 C 188.246 176.176,187.870 175.193,187.786 174.728 C 187.701 174.262,187.377 173.672,187.066 173.416 C 186.705 173.119,186.681 173.043,187.000 173.206 C 187.413 173.417,187.428 173.373,187.086 172.950 C 186.859 172.669,186.771 172.340,186.892 172.219 C 187.012 172.099,186.936 172.000,186.722 172.000 C 186.508 172.000,186.351 171.887,186.373 171.750 C 186.467 171.153,186.314 170.640,186.083 170.782 C 185.946 170.867,185.816 170.613,185.794 170.218 C 185.751 169.420,184.167 165.110,183.705 164.534 C 183.543 164.332,183.306 163.678,183.178 163.080 C 183.050 162.483,182.808 162.079,182.640 162.183 C 182.471 162.288,182.311 162.176,182.284 161.936 C 182.257 161.696,182.210 161.275,182.181 161.000 C 182.151 160.725,181.925 160.050,181.678 159.500 C 181.230 158.502,181.147 158.222,181.051 157.397 C 181.023 157.157,180.864 157.045,180.698 157.147 C 180.532 157.250,180.468 157.056,180.557 156.717 C 180.646 156.377,180.482 155.863,180.193 155.574 C 179.903 155.284,179.667 154.948,179.667 154.827 C 179.667 153.566,176.120 152.886,174.706 153.877 C 173.980 154.385,172.800 156.526,172.938 157.083 C 172.972 157.221,172.812 157.336,172.583 157.338 C 172.275 157.342,172.283 157.417,172.616 157.628 C 172.972 157.854,172.906 158.061,172.303 158.623 C 171.884 159.014,171.648 159.333,171.779 159.333 C 171.910 159.333,171.782 159.788,171.495 160.343 C 171.208 160.899,171.077 161.522,171.205 161.728 C 171.342 161.951,171.287 162.011,171.068 161.876 C 170.733 161.668,170.203 163.317,170.342 164.137 C 170.370 164.304,170.155 164.574,169.863 164.737 C 169.572 164.900,169.333 165.253,169.333 165.521 C 169.333 165.789,169.196 166.270,169.028 166.588 C 168.204 168.150,166.009 173.667,166.211 173.667 C 166.302 173.667,166.086 174.229,165.732 174.917 C 164.447 177.411,164.259 177.944,164.514 178.385 C 164.657 178.632,164.646 178.718,164.491 178.576 C 164.144 178.261,162.943 181.305,163.231 181.770 C 163.347 181.958,163.268 181.999,163.052 181.865 C 162.840 181.734,162.654 181.749,162.639 181.897 C 162.482 183.418,162.399 183.758,162.137 183.947 C 161.807 184.185,160.605 187.239,160.575 187.917 C 160.564 188.146,160.449 188.333,160.318 188.333 C 159.994 188.333,159.155 186.266,159.270 185.750 C 159.321 185.521,159.197 185.333,158.995 185.333 C 158.793 185.333,158.724 185.177,158.842 184.985 C 158.961 184.794,158.876 184.419,158.655 184.152 C 158.433 183.885,158.362 183.667,158.498 183.667 C 158.633 183.667,158.525 183.329,158.258 182.917 C 157.833 182.261,157.418 181.085,157.146 179.765 C 156.862 178.388,155.894 176.000,155.620 176.000 C 155.441 176.000,155.389 175.846,155.505 175.658 C 155.715 175.318,153.910 169.433,153.207 168.167 C 153.003 167.800,152.816 167.350,152.790 167.167 C 152.764 166.983,152.708 166.721,152.663 166.583 C 152.619 166.446,152.552 166.221,152.513 166.083 C 152.474 165.946,152.361 165.608,152.261 165.333 C 152.160 165.058,151.880 164.176,151.638 163.373 C 151.396 162.569,150.992 161.707,150.742 161.456 C 150.474 161.189,150.435 161.000,150.646 161.000 C 150.891 161.000,150.901 160.815,150.677 160.417 C 150.496 160.096,150.188 159.191,149.992 158.407 C 149.796 157.622,149.530 157.045,149.401 157.124 C 149.272 157.203,149.152 156.867,149.135 156.377 C 149.118 155.886,148.869 154.964,148.583 154.326 C 148.297 153.688,147.969 152.748,147.855 152.236 C 147.741 151.725,147.523 151.383,147.372 151.476 C 147.220 151.570,147.167 151.276,147.254 150.823 C 147.340 150.370,147.261 150.000,147.077 150.000 C 146.893 150.000,146.662 149.587,146.564 149.083 C 146.320 147.825,146.170 147.328,145.685 146.167 C 145.455 145.617,145.236 144.978,145.197 144.747 C 145.158 144.516,144.960 144.160,144.756 143.956 C 144.552 143.752,144.469 143.369,144.570 143.104 C 145.181 141.513,141.326 139.706,139.500 140.726 M225.770 141.544 C 225.143 142.209,224.706 142.955,224.800 143.200 C 224.894 143.445,224.831 143.732,224.660 143.838 C 224.472 143.954,224.344 154.632,224.337 170.880 C 224.326 198.340,224.385 199.765,225.601 201.000 C 226.039 201.444,226.067 201.444,225.856 201.000 C 225.708 200.690,225.798 200.721,226.094 201.082 C 227.302 202.555,232.436 201.515,231.493 199.988 C 231.403 199.843,231.518 199.661,231.748 199.584 C 232.072 199.476,232.190 196.566,232.268 186.729 L 232.370 174.013 248.217 173.923 C 262.379 173.843,265.836 173.977,264.417 174.553 C 264.095 174.684,264.000 177.317,264.000 186.134 C 264.000 198.459,264.251 200.717,265.674 201.169 C 266.036 201.284,266.333 201.518,266.333 201.689 C 266.333 201.860,267.083 202.000,268.000 202.000 C 268.951 202.000,269.667 201.848,269.667 201.647 C 269.667 201.453,269.800 201.376,269.962 201.477 C 270.125 201.577,270.443 201.436,270.670 201.163 C 270.896 200.890,270.951 200.664,270.791 200.662 C 270.631 200.659,270.653 200.546,270.840 200.412 C 271.941 199.619,271.985 198.510,271.980 171.585 C 271.974 142.998,271.947 142.440,270.460 141.156 C 268.601 139.550,264.370 140.855,264.764 142.914 C 264.843 143.328,264.778 143.667,264.620 143.667 C 264.463 143.667,264.357 143.779,264.386 143.917 C 264.415 144.054,264.334 144.403,264.206 144.692 C 264.078 144.981,264.017 150.118,264.070 156.109 L 264.167 167.000 248.417 167.000 C 239.754 167.000,232.592 166.962,232.501 166.917 C 232.410 166.871,232.298 161.371,232.251 154.694 C 232.186 145.340,232.071 142.523,231.750 142.417 C 231.521 142.340,231.333 142.127,231.333 141.942 C 231.333 140.079,227.417 139.798,225.770 141.544 M303.676 141.417 C 303.112 142.012,302.559 142.875,302.446 143.333 C 302.334 143.792,302.129 144.317,301.993 144.500 C 301.856 144.683,301.639 145.321,301.512 145.917 C 301.385 146.513,300.910 147.698,300.457 148.549 C 300.004 149.401,299.714 150.309,299.813 150.567 C 299.912 150.824,299.861 150.954,299.701 150.854 C 299.477 150.716,299.036 151.618,299.016 152.253 C 299.015 152.301,298.791 152.770,298.520 153.295 C 298.249 153.819,298.121 154.343,298.236 154.458 C 298.350 154.573,298.287 154.667,298.094 154.667 C 297.783 154.667,297.665 154.907,297.358 156.167 C 297.313 156.350,297.121 156.688,296.931 156.917 C 296.741 157.146,296.696 157.333,296.831 157.333 C 296.966 157.333,296.823 157.720,296.513 158.194 C 296.203 158.667,296.044 159.300,296.159 159.600 C 296.274 159.901,296.263 160.041,296.134 159.912 C 295.822 159.600,294.932 161.341,295.134 161.867 C 295.220 162.093,295.076 162.361,294.812 162.462 C 294.549 162.563,294.333 162.942,294.333 163.303 C 294.333 163.665,294.181 164.055,293.995 164.170 C 293.808 164.285,293.742 164.519,293.848 164.690 C 293.953 164.860,293.880 165.000,293.686 165.000 C 293.492 165.000,293.351 165.112,293.373 165.250 C 293.395 165.387,293.383 165.575,293.347 165.667 C 293.224 165.983,292.961 167.168,292.925 167.569 C 292.905 167.790,292.776 167.901,292.639 167.816 C 292.351 167.639,291.155 170.955,291.280 171.583 C 291.325 171.813,291.222 172.000,291.051 172.000 C 290.612 172.000,289.607 174.634,289.879 175.073 C 290.023 175.307,289.946 175.339,289.662 175.163 C 289.341 174.965,289.278 175.043,289.433 175.445 C 289.550 175.750,289.521 176.000,289.369 176.000 C 289.055 176.000,287.574 179.685,287.798 179.910 C 287.879 179.990,287.657 180.343,287.306 180.694 C 286.589 181.411,286.444 182.152,287.083 181.828 C 287.313 181.712,287.268 181.816,286.984 182.059 C 286.701 182.301,286.271 183.025,286.028 183.667 C 285.786 184.308,285.314 185.450,284.980 186.205 C 283.222 190.173,281.727 194.001,281.933 194.005 C 282.061 194.008,282.017 194.120,281.833 194.255 C 281.268 194.671,280.597 196.753,280.481 198.451 C 280.222 202.274,285.600 203.408,287.037 199.833 C 287.258 199.283,287.715 198.203,288.054 197.432 C 288.392 196.662,288.706 195.695,288.751 195.283 C 288.796 194.871,289.096 194.264,289.417 193.934 C 289.737 193.604,290.000 193.042,290.000 192.686 C 290.000 192.330,290.131 191.959,290.290 191.860 C 290.574 191.685,291.133 189.748,291.045 189.250 C 291.020 189.112,291.140 189.000,291.311 189.000 C 291.482 189.000,291.721 188.662,291.842 188.250 C 291.964 187.838,292.301 186.941,292.592 186.257 L 293.122 185.015 306.050 184.924 L 318.979 184.833 319.897 186.891 C 320.402 188.022,320.955 188.861,321.126 188.756 C 321.297 188.650,321.345 188.712,321.232 188.893 C 320.973 189.314,321.689 191.692,322.014 191.491 C 322.148 191.408,322.251 191.526,322.243 191.754 C 322.205 192.811,322.361 193.356,322.649 193.177 C 322.823 193.070,322.907 193.286,322.835 193.658 C 322.763 194.029,322.846 194.333,323.019 194.333 C 323.192 194.333,323.303 194.446,323.265 194.583 C 323.122 195.106,324.068 197.331,324.356 197.152 C 324.523 197.050,324.575 197.185,324.472 197.453 C 324.074 198.489,326.911 202.234,327.827 201.882 C 328.106 201.775,328.333 201.849,328.333 202.046 C 328.333 202.258,328.573 202.305,328.917 202.163 C 329.237 202.030,329.688 201.913,329.917 201.905 C 330.146 201.896,330.333 201.764,330.333 201.611 C 330.333 201.458,330.486 201.371,330.673 201.417 C 331.633 201.653,332.458 199.083,332.033 197.182 C 331.805 196.165,331.480 195.333,331.309 195.333 C 331.139 195.333,331.000 195.067,331.000 194.741 C 331.000 194.415,330.740 193.777,330.423 193.324 C 330.105 192.871,329.862 192.425,329.883 192.333 C 329.918 192.175,329.555 191.082,329.106 190.000 C 328.993 189.725,328.858 189.294,328.806 189.042 C 328.609 188.067,327.904 186.667,327.612 186.667 C 327.442 186.667,327.338 186.479,327.380 186.250 C 327.422 186.021,327.203 185.253,326.895 184.543 C 326.586 183.833,326.333 183.190,326.333 183.115 C 326.333 183.040,326.086 182.421,325.784 181.739 C 325.482 181.058,325.199 180.332,325.153 180.126 C 325.108 179.920,324.852 179.245,324.585 178.626 C 322.965 174.880,322.522 174.000,322.257 174.000 C 322.094 174.000,322.036 173.878,322.129 173.728 C 322.301 173.449,321.866 172.118,320.887 169.927 C 320.583 169.246,320.333 168.537,320.333 168.353 C 320.333 167.809,318.890 165.000,318.611 165.000 C 318.470 165.000,318.434 164.793,318.531 164.540 C 318.628 164.287,318.334 163.306,317.877 162.360 C 317.420 161.413,316.949 160.194,316.830 159.650 C 316.701 159.066,316.466 158.751,316.255 158.882 C 316.046 159.011,315.994 158.947,316.129 158.728 C 316.257 158.521,316.113 157.973,315.809 157.509 C 315.505 157.046,315.386 156.664,315.545 156.662 C 315.704 156.659,315.650 156.540,315.425 156.397 C 315.079 156.177,314.793 155.332,314.691 154.230 C 314.678 154.082,314.493 154.068,314.282 154.198 C 314.047 154.343,313.987 154.290,314.128 154.062 C 314.256 153.856,314.054 153.016,313.680 152.196 C 313.306 151.375,313.000 150.536,313.000 150.332 C 313.000 150.128,312.867 150.043,312.704 150.144 C 312.541 150.244,312.328 149.916,312.230 149.413 C 311.913 147.784,311.646 147.018,310.627 144.811 C 310.282 144.066,310.000 143.284,310.000 143.073 C 310.000 140.713,305.465 139.525,303.676 141.417 M332.521 141.311 C 331.187 142.704,331.204 145.175,332.556 146.272 C 333.497 147.036,333.592 147.043,342.053 147.012 C 349.534 146.984,350.666 147.047,351.142 147.523 C 351.635 148.016,351.682 150.457,351.656 174.034 C 351.629 199.466,351.670 200.910,352.408 200.454 C 352.610 200.329,352.675 200.384,352.555 200.577 C 352.264 201.048,353.205 201.785,353.704 201.477 C 353.956 201.321,354.016 201.372,353.865 201.615 C 353.628 201.998,354.395 202.153,355.833 202.011 C 356.650 201.931,358.129 201.018,357.867 200.756 C 357.763 200.652,357.937 200.376,358.255 200.143 C 358.795 199.748,358.833 198.000,358.833 173.542 L 358.833 147.364 359.599 147.172 C 360.020 147.066,363.845 146.989,368.099 146.999 C 377.961 147.025,378.016 147.012,378.711 144.492 C 379.065 143.213,378.461 141.428,377.728 141.583 C 377.511 141.629,377.333 141.458,377.333 141.203 C 377.333 140.372,375.929 140.319,354.547 140.341 L 333.431 140.362 332.521 141.311 M270.919 171.352 L 270.833 198.500 270.667 171.100 C 270.575 156.030,270.613 143.813,270.752 143.952 C 270.891 144.091,270.966 156.421,270.919 171.352 M306.812 154.725 C 307.099 155.299,307.333 155.915,307.333 156.093 C 307.333 156.422,308.794 159.991,309.391 161.121 C 309.572 161.463,309.781 162.063,309.856 162.454 C 309.931 162.846,310.217 163.331,310.491 163.533 C 310.765 163.734,310.897 163.992,310.783 164.106 C 310.560 164.329,311.229 166.220,311.790 166.949 C 311.980 167.196,312.184 167.713,312.242 168.098 C 312.301 168.483,312.608 169.095,312.925 169.457 C 313.241 169.818,313.298 169.996,313.050 169.850 C 312.686 169.637,312.672 169.721,312.978 170.293 C 313.187 170.682,313.539 171.002,313.762 171.005 C 314.016 171.008,313.981 171.130,313.667 171.333 C 313.303 171.568,313.286 171.658,313.603 171.662 C 313.843 171.664,313.946 171.818,313.832 172.002 C 313.718 172.187,313.849 172.424,314.124 172.530 C 314.400 172.635,314.548 172.922,314.454 173.167 C 314.360 173.412,314.531 173.992,314.835 174.455 C 315.139 174.919,315.379 175.380,315.369 175.479 C 315.341 175.764,315.686 176.778,316.027 177.417 C 316.321 177.966,315.759 178.000,306.326 178.000 C 295.157 178.000,295.410 178.058,296.593 175.765 C 296.952 175.069,297.434 174.050,297.663 173.500 C 297.893 172.950,298.297 172.087,298.560 171.583 C 298.823 171.078,298.946 170.516,298.833 170.333 C 298.720 170.150,298.786 170.000,298.980 170.000 C 299.174 170.000,299.333 169.787,299.333 169.527 C 299.333 169.267,299.551 168.629,299.816 168.110 C 300.226 167.310,300.628 166.337,300.825 165.667 C 300.852 165.575,301.129 164.914,301.441 164.199 C 301.753 163.483,301.931 162.820,301.837 162.726 C 301.743 162.631,301.914 162.279,302.218 161.944 C 302.521 161.608,302.653 161.333,302.511 161.333 C 302.368 161.333,302.433 161.115,302.655 160.848 C 302.876 160.581,302.961 160.206,302.842 160.015 C 302.724 159.823,302.749 159.665,302.897 159.664 C 303.212 159.661,304.000 158.067,304.000 157.434 C 304.000 157.195,304.175 157.000,304.389 157.000 C 304.603 157.000,304.679 156.901,304.558 156.781 C 304.438 156.660,304.468 156.398,304.626 156.197 C 304.784 155.997,305.095 155.269,305.317 154.580 C 305.769 153.177,306.054 153.205,306.812 154.725 M182.518 177.638 C 182.414 177.806,182.518 178.010,182.748 178.093 C 182.978 178.175,183.046 178.371,182.899 178.528 C 182.592 178.855,181.959 178.003,182.208 177.599 C 182.299 177.453,182.448 177.333,182.539 177.333 C 182.631 177.333,182.621 177.471,182.518 177.638 M311.417 178.916 C 308.438 178.971,303.563 178.971,300.583 178.916 C 297.604 178.861,300.042 178.816,306.000 178.816 C 311.958 178.816,314.396 178.861,311.417 178.916 M192.667 213.715 C 189.946 214.172,189.170 214.370,188.850 214.687 C 188.676 214.859,188.272 215.000,187.952 215.000 C 187.246 215.000,185.000 216.285,185.000 216.689 C 185.000 216.849,184.784 216.896,184.520 216.795 C 184.248 216.691,183.853 216.911,183.607 217.305 C 183.368 217.687,183.022 218.001,182.836 218.002 C 182.450 218.003,180.000 220.185,180.000 220.527 C 180.000 220.653,179.716 221.001,179.369 221.302 C 178.479 222.074,176.667 225.235,176.667 226.015 C 176.667 226.373,176.527 226.667,176.356 226.667 C 175.994 226.667,175.566 227.883,175.183 230.000 C 175.133 230.275,174.962 230.800,174.803 231.167 C 174.265 232.405,174.431 240.980,175.000 241.340 C 175.275 241.514,175.338 241.659,175.141 241.662 C 174.651 241.669,174.974 243.765,175.514 244.083 C 175.747 244.220,175.859 244.632,175.763 244.999 C 175.662 245.387,175.753 245.667,175.981 245.667 C 176.196 245.667,176.281 245.814,176.170 245.995 C 175.920 246.399,178.339 251.023,178.916 251.245 C 179.146 251.333,179.333 251.554,179.333 251.736 C 179.333 252.318,184.149 256.678,184.601 256.506 C 184.839 256.415,184.947 256.484,184.839 256.658 C 184.614 257.022,187.144 258.412,187.459 258.097 C 187.573 257.982,187.667 258.081,187.667 258.317 C 187.667 258.592,187.960 258.688,188.490 258.587 C 188.943 258.500,189.248 258.536,189.167 258.665 C 188.632 259.532,199.994 260.323,200.619 259.463 C 200.737 259.300,201.208 259.171,201.667 259.177 C 202.125 259.183,203.025 258.990,203.667 258.749 C 204.308 258.507,205.094 258.223,205.413 258.117 C 205.732 258.011,205.896 257.768,205.778 257.577 C 205.660 257.386,205.699 257.311,205.865 257.409 C 206.335 257.689,207.735 257.047,207.497 256.661 C 207.380 256.472,207.482 256.358,207.725 256.408 C 207.973 256.460,208.146 256.239,208.118 255.905 C 208.083 255.465,208.179 255.400,208.487 255.656 C 208.951 256.041,212.333 253.168,212.333 252.388 C 212.333 252.153,212.481 252.052,212.661 252.163 C 212.968 252.353,215.333 249.033,215.333 248.412 C 215.333 248.254,215.625 247.522,215.981 246.784 C 216.338 246.047,216.689 245.081,216.762 244.638 C 216.836 244.196,217.080 243.383,217.305 242.833 C 217.930 241.308,218.068 234.073,217.524 231.414 C 216.795 227.853,216.719 227.610,216.125 226.954 C 215.816 226.613,215.685 226.333,215.833 226.333 C 215.982 226.333,215.818 226.008,215.468 225.609 C 215.119 225.211,215.036 225.004,215.283 225.150 C 215.648 225.364,215.661 225.279,215.350 224.698 C 215.139 224.304,214.801 224.084,214.598 224.209 C 214.379 224.345,214.324 224.284,214.464 224.059 C 214.674 223.718,213.819 222.223,212.757 221.076 C 212.532 220.833,212.157 220.372,211.924 220.053 C 211.691 219.733,210.825 218.953,210.000 218.319 C 209.175 217.685,208.425 217.092,208.333 217.000 C 208.242 216.908,207.642 216.572,207.000 216.252 C 206.358 215.932,205.608 215.541,205.333 215.382 C 202.826 213.935,196.397 213.089,192.667 213.715 M139.167 214.084 C 138.238 214.416,137.369 215.198,137.344 215.724 C 137.338 215.848,137.746 216.441,138.250 217.043 C 138.754 217.645,138.995 218.032,138.785 217.904 C 138.264 217.585,137.940 218.540,138.436 218.930 C 138.996 219.370,139.120 219.381,146.167 219.635 C 149.650 219.760,152.313 219.893,152.083 219.931 C 151.410 220.042,151.484 256.681,152.161 257.989 C 153.044 259.696,156.284 260.052,156.877 258.507 C 156.983 258.230,157.186 258.076,157.328 258.163 C 157.899 258.516,158.000 255.486,158.000 237.958 L 158.000 219.667 163.750 219.595 L 169.500 219.524 163.667 219.333 L 157.833 219.143 163.564 219.071 C 166.725 219.032,169.378 219.136,169.481 219.303 C 169.893 219.970,172.238 218.395,172.456 217.305 C 172.775 215.709,172.716 215.333,172.147 215.333 C 171.861 215.333,171.713 215.195,171.817 215.026 C 172.609 213.744,142.544 212.877,139.167 214.084 M243.552 213.995 C 241.604 214.606,241.683 213.648,241.684 236.750 C 241.685 255.028,241.752 258.000,242.165 258.000 C 242.437 258.000,242.569 258.200,242.469 258.460 C 242.229 259.085,243.911 259.631,245.083 259.309 C 245.588 259.171,246.000 259.120,246.000 259.195 C 246.000 259.271,246.276 259.071,246.614 258.750 C 246.951 258.429,247.174 258.065,247.108 257.940 C 247.043 257.815,247.142 257.619,247.328 257.503 C 247.542 257.371,247.667 254.332,247.668 249.230 L 247.668 241.167 254.723 241.167 C 260.090 241.167,261.812 241.066,261.918 240.748 C 261.994 240.518,262.210 240.424,262.397 240.540 C 262.814 240.797,265.333 240.003,265.333 239.613 C 265.333 239.459,265.551 239.333,265.818 239.333 C 266.530 239.333,270.000 235.953,270.000 235.260 C 270.000 234.934,270.113 234.667,270.252 234.667 C 270.737 234.667,271.742 231.863,271.718 230.576 C 271.712 230.251,271.822 230.057,271.962 230.143 C 272.325 230.368,272.308 224.579,271.944 224.118 C 271.779 223.909,271.666 223.609,271.694 223.452 C 271.837 222.655,271.601 221.934,271.000 221.333 C 270.633 220.967,270.399 220.667,270.480 220.667 C 270.705 220.667,269.915 219.248,269.167 218.307 C 268.477 217.441,264.667 214.500,264.667 214.835 C 264.667 214.938,264.345 214.851,263.952 214.641 C 262.523 213.876,245.633 213.341,243.552 213.995 M280.833 213.978 C 280.283 214.102,279.868 214.374,279.910 214.582 C 279.952 214.789,279.692 215.053,279.332 215.167 C 278.450 215.447,278.281 258.000,279.161 258.000 C 279.446 258.000,279.570 258.198,279.462 258.480 C 279.071 259.499,281.690 259.709,293.442 259.603 L 304.833 259.500 305.754 258.625 C 306.289 258.117,306.625 257.487,306.556 257.125 C 305.901 253.687,305.767 253.649,294.405 253.742 L 285.167 253.817 294.500 254.003 L 303.833 254.188 294.333 254.177 L 284.833 254.167 284.747 235.364 C 284.681 220.994,284.564 216.441,284.247 216.050 C 283.905 215.627,283.920 215.583,284.333 215.794 C 284.631 215.946,284.600 215.858,284.255 215.575 C 283.937 215.314,283.753 215.024,283.847 214.931 C 284.420 214.358,282.226 213.665,280.833 213.978 M325.248 214.509 C 324.509 215.012,323.929 215.718,323.812 216.259 C 323.705 216.758,323.314 217.736,322.945 218.432 C 322.576 219.128,322.356 219.911,322.456 220.173 C 322.557 220.435,322.448 220.766,322.215 220.908 C 321.981 221.050,321.451 222.067,321.035 223.167 C 320.620 224.267,320.034 225.692,319.732 226.333 C 319.431 226.975,319.123 227.633,319.049 227.796 C 318.974 227.959,319.120 227.986,319.373 227.855 C 319.626 227.724,319.571 227.832,319.250 228.095 C 318.929 228.358,318.667 228.811,318.667 229.100 C 318.667 229.390,318.514 229.722,318.328 229.837 C 318.142 229.952,318.069 230.175,318.167 230.333 C 318.264 230.491,318.182 230.721,317.983 230.844 C 317.784 230.967,317.697 231.265,317.790 231.506 C 317.882 231.747,317.741 232.028,317.476 232.130 C 317.211 232.232,317.027 232.431,317.068 232.574 C 317.108 232.717,316.954 233.171,316.726 233.583 C 316.497 233.996,316.399 234.333,316.507 234.333 C 316.616 234.333,316.483 234.746,316.212 235.250 C 315.785 236.043,315.328 237.113,315.179 237.667 C 315.155 237.758,314.750 238.658,314.280 239.667 C 313.457 241.432,312.884 242.923,312.850 243.389 C 312.841 243.511,312.721 243.724,312.583 243.861 C 312.446 243.999,312.333 244.461,312.333 244.889 C 312.333 245.317,312.207 245.667,312.054 245.667 C 311.900 245.667,311.598 246.051,311.384 246.521 C 311.076 247.199,311.082 247.325,311.414 247.131 C 311.645 246.996,311.533 247.237,311.167 247.667 C 310.764 248.139,310.698 248.337,311.000 248.167 C 311.411 247.935,311.405 247.999,310.967 248.526 C 310.516 249.069,310.010 250.037,309.848 250.667 C 309.825 250.758,309.543 251.325,309.222 251.926 C 308.902 252.528,308.729 253.165,308.839 253.343 C 308.949 253.521,308.892 253.667,308.712 253.667 C 307.972 253.667,307.365 257.971,308.039 258.445 C 309.236 259.287,310.118 259.640,310.738 259.525 C 311.157 259.447,311.660 259.372,311.855 259.358 C 312.316 259.326,313.721 256.832,313.438 256.549 C 313.319 256.430,313.367 256.333,313.544 256.333 C 313.995 256.333,314.760 254.087,314.469 253.617 C 314.325 253.383,314.376 253.320,314.599 253.458 C 314.829 253.600,315.125 253.148,315.384 252.260 C 315.613 251.475,315.928 250.745,316.084 250.637 C 316.239 250.529,316.391 250.116,316.421 249.720 C 316.451 249.324,316.593 249.000,316.738 249.000 C 316.882 249.000,316.982 248.887,316.961 248.750 C 316.939 248.612,316.958 248.387,317.002 248.250 C 317.047 248.112,317.102 247.813,317.125 247.583 C 317.157 247.263,319.363 247.146,326.667 247.078 L 336.167 246.990 336.552 247.912 C 336.765 248.419,337.132 249.396,337.369 250.083 C 337.607 250.771,337.909 251.333,338.040 251.333 C 338.172 251.333,338.387 251.821,338.517 252.417 C 339.361 256.289,341.744 259.667,343.631 259.667 C 344.318 259.667,345.676 258.589,345.809 257.938 C 345.859 257.697,346.011 257.244,346.147 256.930 C 346.426 256.288,345.931 254.554,344.836 252.333 C 344.428 251.508,343.995 250.415,343.871 249.903 C 343.748 249.391,343.516 249.054,343.355 249.153 C 343.194 249.253,343.136 249.051,343.227 248.705 C 343.317 248.359,343.228 247.974,343.029 247.851 C 342.830 247.728,342.667 247.405,342.667 247.133 C 342.667 246.861,342.217 245.676,341.667 244.500 C 341.117 243.324,340.667 242.148,340.667 241.888 C 340.667 241.628,340.442 241.228,340.167 241.000 C 339.892 240.772,339.667 240.308,339.667 239.970 C 339.667 239.176,338.630 237.000,338.252 237.000 C 338.092 237.000,338.053 236.850,338.167 236.667 C 338.280 236.483,338.230 236.333,338.057 236.333 C 337.883 236.333,337.750 236.146,337.761 235.917 C 337.801 235.115,337.247 233.333,336.958 233.333 C 336.798 233.333,336.691 233.221,336.721 233.083 C 336.843 232.529,336.242 231.017,335.968 231.186 C 335.807 231.286,335.773 231.111,335.894 230.796 C 336.042 230.410,335.987 230.302,335.727 230.463 C 335.475 230.619,335.410 230.522,335.539 230.184 C 335.652 229.892,335.562 229.667,335.333 229.667 C 335.105 229.667,335.015 229.442,335.127 229.149 C 335.236 228.865,335.102 228.290,334.828 227.873 C 334.555 227.455,334.410 227.034,334.507 226.938 C 334.604 226.841,334.454 226.572,334.175 226.340 C 333.895 226.108,333.667 225.667,333.667 225.359 C 333.667 225.052,333.487 224.620,333.267 224.400 C 333.047 224.180,332.964 224.000,333.083 224.000 C 333.391 224.000,332.364 221.610,331.767 220.938 C 331.493 220.628,331.367 220.216,331.487 220.021 C 331.607 219.826,331.547 219.667,331.353 219.667 C 331.159 219.667,331.025 219.554,331.055 219.417 C 331.173 218.877,330.579 217.348,330.315 217.511 C 330.161 217.607,330.092 217.388,330.162 217.025 C 330.303 216.291,329.017 214.167,328.431 214.167 C 328.225 214.167,327.943 214.054,327.806 213.917 C 327.349 213.461,326.503 213.657,325.248 214.509 M346.279 214.044 C 344.363 214.746,344.034 217.496,345.636 219.419 C 345.928 219.769,346.505 220.456,346.919 220.945 C 347.332 221.433,347.756 222.098,347.859 222.422 C 347.963 222.745,348.187 222.924,348.357 222.819 C 348.527 222.713,348.667 222.816,348.667 223.046 C 348.667 223.543,350.130 225.720,351.418 227.140 C 351.923 227.697,352.422 228.420,352.526 228.748 C 352.630 229.075,352.854 229.257,353.024 229.152 C 353.194 229.047,353.333 229.241,353.333 229.584 C 353.333 229.927,353.633 230.530,354.000 230.923 C 354.367 231.317,354.667 231.788,354.667 231.969 C 354.667 232.151,354.854 232.420,355.083 232.567 C 355.483 232.823,356.056 233.579,357.844 236.214 L 358.667 237.426 358.667 247.194 C 358.667 253.450,358.788 257.036,359.005 257.170 C 359.192 257.285,359.271 257.497,359.182 257.641 C 358.945 258.025,360.390 259.262,361.167 259.342 C 364.432 259.676,364.394 259.804,364.435 248.131 L 364.470 238.167 364.662 247.333 L 364.854 256.500 364.844 246.848 C 364.833 237.210,364.834 237.195,365.601 236.429 C 366.024 236.007,366.277 235.512,366.165 235.331 C 366.053 235.149,366.157 234.998,366.397 234.996 C 366.637 234.994,367.165 234.506,367.570 233.913 C 367.975 233.319,368.750 232.209,369.293 231.445 C 369.835 230.681,370.179 229.945,370.056 229.808 C 369.934 229.672,370.022 229.668,370.252 229.801 C 370.506 229.947,370.763 229.803,370.902 229.438 C 371.029 229.105,371.403 228.543,371.733 228.187 C 372.063 227.832,372.333 227.402,372.333 227.231 C 372.333 227.061,372.746 226.444,373.250 225.862 C 373.754 225.279,374.467 224.374,374.833 223.850 C 375.200 223.327,375.762 222.621,376.083 222.283 C 376.404 221.944,376.563 221.667,376.437 221.667 C 376.311 221.667,376.536 221.361,376.937 220.987 C 377.338 220.613,377.667 220.079,377.667 219.801 C 377.667 219.522,377.801 219.377,377.965 219.478 C 378.839 220.019,379.197 216.144,378.373 215.053 C 377.471 213.857,374.333 213.427,374.333 214.500 C 374.333 214.775,374.146 214.963,373.917 214.917 C 373.688 214.871,373.520 215.090,373.544 215.404 C 373.568 215.717,373.424 215.942,373.223 215.904 C 373.022 215.865,372.704 216.171,372.516 216.583 C 372.329 216.996,372.061 217.333,371.921 217.333 C 371.781 217.333,371.667 217.558,371.667 217.833 C 371.667 218.108,371.508 218.333,371.314 218.333 C 371.120 218.333,371.044 218.468,371.145 218.632 C 371.247 218.796,371.105 219.016,370.831 219.121 C 370.557 219.226,370.333 219.642,370.333 220.045 C 370.333 220.448,370.238 220.683,370.122 220.567 C 369.884 220.329,368.667 221.757,368.667 222.275 C 368.667 222.460,368.553 222.661,368.414 222.722 C 367.831 222.979,365.971 225.683,366.163 225.994 C 366.278 226.181,366.123 226.333,365.817 226.333 C 365.463 226.333,365.331 226.513,365.452 226.829 C 365.560 227.110,365.473 227.291,365.253 227.246 C 365.039 227.202,364.838 227.354,364.807 227.583 C 364.776 227.813,364.731 228.159,364.708 228.353 C 364.685 228.547,364.517 228.613,364.333 228.500 C 364.150 228.387,364.000 228.528,364.000 228.814 C 364.000 229.099,363.887 229.334,363.750 229.336 C 363.613 229.337,363.141 229.865,362.702 230.509 L 361.905 231.680 360.869 230.181 C 360.299 229.357,359.375 228.042,358.814 227.258 C 358.254 226.474,357.214 225.008,356.505 224.000 C 349.416 213.931,348.643 213.178,346.279 214.044 M279.583 246.583 C 279.532 252.037,279.490 247.575,279.490 236.667 C 279.490 225.758,279.532 221.296,279.583 226.750 C 279.635 232.204,279.635 241.129,279.583 246.583 M149.417 218.582 C 147.721 218.642,144.946 218.642,143.250 218.582 C 141.554 218.521,142.942 218.472,146.333 218.472 C 149.725 218.472,151.112 218.521,149.417 218.582 M166.767 218.581 C 165.081 218.642,162.231 218.642,160.434 218.582 C 158.637 218.522,160.017 218.473,163.500 218.472 C 166.983 218.472,168.454 218.521,166.767 218.581 M256.434 218.581 C 254.748 218.642,251.898 218.642,250.101 218.582 C 248.304 218.522,249.683 218.473,253.167 218.472 C 256.650 218.472,258.120 218.521,256.434 218.581 M148.917 219.248 C 147.313 219.309,144.688 219.309,143.083 219.248 C 141.479 219.187,142.792 219.137,146.000 219.137 C 149.208 219.137,150.521 219.187,148.917 219.248 M196.833 219.595 C 199.249 219.590,200.246 219.798,202.617 220.805 C 204.753 221.712,205.061 221.905,206.481 223.230 C 206.911 223.631,207.340 223.882,207.434 223.788 C 207.529 223.694,207.705 223.928,207.825 224.308 C 207.946 224.689,208.185 225.000,208.356 225.000 C 208.527 225.000,208.640 225.112,208.608 225.250 C 208.522 225.622,209.403 227.333,209.681 227.333 C 209.917 227.333,210.262 228.193,210.541 229.474 C 210.617 229.826,210.808 230.276,210.966 230.474 C 211.768 231.483,212.033 239.379,211.336 241.490 C 211.115 242.162,211.024 242.802,211.134 242.912 C 211.245 243.022,211.072 243.413,210.751 243.780 C 210.318 244.275,210.296 244.383,210.667 244.199 C 210.964 244.052,210.930 244.145,210.583 244.429 C 210.262 244.692,210.000 245.088,210.000 245.310 C 210.000 246.301,206.811 250.229,205.407 250.967 C 204.990 251.187,204.735 251.508,204.841 251.680 C 204.948 251.852,204.813 251.907,204.543 251.804 C 204.273 251.700,203.740 251.927,203.359 252.308 C 202.978 252.688,202.590 252.987,202.495 252.972 C 202.012 252.891,199.364 253.464,198.417 253.854 C 197.821 254.099,197.333 254.185,197.333 254.044 C 197.333 253.904,196.546 253.785,195.583 253.781 C 189.823 253.751,183.853 249.938,182.326 245.312 C 182.088 244.591,181.786 244.000,181.655 244.000 C 181.524 244.000,181.417 243.608,181.417 243.129 C 181.417 242.650,181.276 242.162,181.105 242.045 C 180.739 241.797,180.718 241.553,180.703 237.167 C 180.688 232.917,180.780 231.333,181.042 231.333 C 181.229 231.333,181.733 229.681,181.805 228.833 C 181.821 228.650,181.908 228.425,182.000 228.333 C 182.092 228.242,182.411 227.730,182.710 227.197 C 184.191 224.558,187.251 221.676,189.350 220.944 C 189.890 220.756,190.269 220.498,190.191 220.372 C 190.113 220.246,190.300 220.124,190.608 220.100 C 190.915 220.077,191.617 219.987,192.167 219.900 C 192.717 219.814,193.438 219.726,193.770 219.705 C 194.118 219.683,194.277 219.512,194.146 219.300 C 193.986 219.040,194.101 219.030,194.543 219.266 C 194.886 219.449,195.917 219.597,196.833 219.595 M256.750 219.248 C 255.054 219.309,252.279 219.309,250.583 219.248 C 248.887 219.188,250.275 219.138,253.667 219.138 C 257.058 219.138,258.446 219.188,256.750 219.248 M261.181 219.689 C 261.302 219.885,261.598 219.970,261.839 219.877 C 262.081 219.785,262.367 219.940,262.475 220.222 C 262.590 220.520,262.888 220.653,263.187 220.538 C 263.470 220.430,263.620 220.472,263.521 220.633 C 263.422 220.793,263.564 221.110,263.837 221.336 C 264.110 221.563,264.334 221.617,264.335 221.457 C 264.337 220.940,265.545 223.136,265.826 224.167 C 265.975 224.717,266.104 225.870,266.112 226.731 C 266.120 227.591,266.250 228.218,266.400 228.125 C 266.551 228.032,266.375 228.716,266.009 229.645 C 265.643 230.573,265.428 231.333,265.533 231.333 C 266.137 231.333,262.994 234.716,262.250 234.866 C 262.112 234.894,261.962 234.947,261.917 234.984 C 261.519 235.304,259.591 235.449,254.083 235.573 L 247.667 235.718 247.667 227.699 L 247.667 219.681 254.083 219.583 C 257.612 219.529,260.604 219.451,260.730 219.409 C 260.857 219.367,261.060 219.494,261.181 219.689 M327.567 225.917 C 328.058 226.971,328.509 228.125,328.571 228.481 C 328.632 228.837,328.904 229.573,329.174 230.116 C 329.445 230.658,329.667 231.304,329.667 231.551 C 329.667 231.798,329.826 232.000,330.020 232.000 C 330.214 232.000,330.280 232.150,330.167 232.333 C 330.053 232.517,330.101 232.667,330.272 232.667 C 330.443 232.667,330.673 233.117,330.783 233.667 C 330.893 234.217,331.317 235.379,331.725 236.250 C 332.133 237.121,332.480 237.908,332.497 238.000 C 332.691 239.039,333.454 240.631,333.690 240.486 C 333.856 240.383,333.917 240.494,333.826 240.733 C 333.641 241.214,319.666 241.395,319.667 240.917 C 319.667 240.779,319.842 240.667,320.056 240.667 C 320.269 240.667,320.350 240.572,320.234 240.456 C 320.118 240.340,320.200 239.928,320.416 239.540 C 320.632 239.151,320.776 238.721,320.737 238.583 C 320.699 238.446,320.793 238.333,320.947 238.333 C 321.102 238.333,321.417 237.696,321.648 236.917 C 321.880 236.137,322.216 235.319,322.396 235.098 C 322.577 234.877,322.634 234.550,322.523 234.371 C 322.413 234.192,322.477 233.950,322.667 233.833 C 322.856 233.716,322.925 233.481,322.819 233.310 C 322.714 233.140,322.802 233.000,323.016 233.000 C 323.230 233.000,323.316 232.768,323.206 232.483 C 323.092 232.186,323.148 232.052,323.337 232.169 C 323.518 232.281,323.685 232.214,323.708 232.020 C 323.785 231.368,323.855 231.170,324.274 230.417 C 324.503 230.004,324.605 229.667,324.500 229.667 C 324.395 229.667,324.495 229.329,324.722 228.917 C 324.949 228.504,325.174 227.942,325.223 227.667 C 325.271 227.392,325.611 226.582,325.978 225.867 C 326.345 225.153,326.566 224.440,326.470 224.284 C 326.373 224.128,326.380 224.000,326.485 224.000 C 326.590 224.000,327.077 224.862,327.567 225.917 M298.917 254.916 C 296.212 254.972,291.787 254.972,289.083 254.916 C 286.379 254.860,288.592 254.814,294.000 254.814 C 299.408 254.814,301.621 254.860,298.917 254.916 " stroke="none" fill="#f4e4ac" fill-rule="evenodd"></path><path id="path2" d="M270.667 171.100 L 270.833 198.500 270.919 171.352 C 270.966 156.421,270.891 144.091,270.752 143.952 C 270.613 143.813,270.575 156.030,270.667 171.100 M338.083 147.249 C 340.421 147.306,344.246 147.306,346.583 147.249 C 348.921 147.192,347.008 147.145,342.333 147.145 C 337.658 147.145,335.746 147.192,338.083 147.249 M363.602 147.249 C 365.859 147.307,369.459 147.307,371.602 147.249 C 373.746 147.191,371.900 147.144,367.500 147.144 C 363.100 147.144,361.346 147.191,363.602 147.249 M351.492 173.000 C 351.492 186.842,351.533 192.504,351.583 185.583 C 351.634 178.663,351.634 167.338,351.583 160.417 C 351.533 153.496,351.492 159.158,351.492 173.000 M182.208 177.599 C 181.959 178.003,182.592 178.855,182.899 178.528 C 183.046 178.371,182.978 178.175,182.748 178.093 C 182.518 178.010,182.414 177.806,182.518 177.638 C 182.621 177.471,182.631 177.333,182.539 177.333 C 182.448 177.333,182.299 177.453,182.208 177.599 M300.583 178.916 C 303.563 178.971,308.438 178.971,311.417 178.916 C 314.396 178.861,311.958 178.816,306.000 178.816 C 300.042 178.816,297.604 178.861,300.583 178.916 M279.490 236.667 C 279.490 247.575,279.532 252.037,279.583 246.583 C 279.635 241.129,279.635 232.204,279.583 226.750 C 279.532 221.296,279.490 225.758,279.490 236.667 M143.250 218.582 C 144.946 218.642,147.721 218.642,149.417 218.582 C 151.112 218.521,149.725 218.472,146.333 218.472 C 142.942 218.472,141.554 218.521,143.250 218.582 M160.434 218.582 C 162.231 218.642,165.081 218.642,166.767 218.581 C 168.454 218.521,166.983 218.472,163.500 218.472 C 160.017 218.473,158.637 218.522,160.434 218.582 M250.101 218.582 C 251.898 218.642,254.748 218.642,256.434 218.581 C 258.120 218.521,256.650 218.472,253.167 218.472 C 249.683 218.473,248.304 218.522,250.101 218.582 M139.557 219.290 C 139.709 219.405,142.533 219.414,145.833 219.309 L 151.833 219.118 145.557 219.099 C 142.104 219.089,139.404 219.174,139.557 219.290 M160.750 219.248 C 162.354 219.309,164.979 219.309,166.583 219.248 C 168.188 219.187,166.875 219.137,163.667 219.137 C 160.458 219.137,159.146 219.187,160.750 219.248 M250.583 219.248 C 252.279 219.309,255.054 219.309,256.750 219.248 C 258.446 219.188,257.058 219.138,253.667 219.138 C 250.275 219.138,248.887 219.188,250.583 219.248 M364.400 247.417 C 364.364 252.688,364.446 257.000,364.583 257.000 C 364.721 257.001,364.794 253.813,364.747 249.917 C 364.603 238.216,364.471 237.265,364.400 247.417 M284.955 254.089 C 285.096 254.229,289.401 254.304,294.522 254.255 L 303.833 254.166 294.266 254.000 C 289.004 253.908,284.814 253.948,284.955 254.089 M289.083 254.916 C 291.787 254.972,296.212 254.972,298.917 254.916 C 301.621 254.860,299.408 254.814,294.000 254.814 C 288.592 254.814,286.379 254.860,289.083 254.916 " stroke="none" fill="#f5e4b4" fill-rule="evenodd"></path><path id="path3" d="M37.267 130.178 C 37.203 130.241,36.741 130.367,36.240 130.458 C 34.089 130.848,33.025 131.449,30.561 133.667 C 29.229 134.865,27.866 137.089,28.237 137.459 C 28.351 137.573,28.302 137.667,28.127 137.667 C 27.404 137.667,27.351 152.432,28.072 152.878 C 28.222 152.970,28.262 153.179,28.161 153.342 C 28.061 153.504,28.185 154.131,28.438 154.735 C 28.690 155.339,28.917 155.947,28.941 156.087 C 29.040 156.641,30.107 158.476,30.702 159.115 C 31.049 159.487,31.333 159.928,31.333 160.093 C 31.333 160.589,34.295 163.707,36.229 165.246 C 37.207 166.025,41.377 168.317,41.667 168.235 C 41.813 168.194,45.313 169.852,49.082 171.747 C 49.769 172.092,50.471 172.288,50.642 172.182 C 50.814 172.076,51.057 172.156,51.183 172.359 C 51.309 172.563,52.368 173.159,53.537 173.683 C 54.706 174.208,55.992 174.944,56.394 175.319 C 56.797 175.693,57.247 176.000,57.396 176.000 C 57.545 176.000,57.667 176.220,57.667 176.488 C 57.667 176.757,57.980 177.144,58.362 177.349 C 58.744 177.553,58.971 177.807,58.865 177.913 C 58.759 178.019,58.840 178.307,59.044 178.553 C 59.248 178.799,59.325 179.000,59.216 179.000 C 59.106 179.000,59.170 179.404,59.358 179.897 C 60.471 182.826,59.515 206.000,58.281 206.000 C 58.136 206.000,57.797 206.425,57.529 206.944 C 57.209 207.562,56.288 208.259,54.863 208.960 C 53.666 209.550,52.596 210.177,52.487 210.355 C 52.377 210.532,52.148 210.591,51.977 210.486 C 51.806 210.380,51.667 210.453,51.667 210.647 C 51.667 210.841,51.554 210.982,51.417 210.961 C 50.675 210.843,49.984 211.064,49.464 211.583 C 49.143 211.904,48.795 212.148,48.690 212.126 C 48.352 212.053,47.512 212.451,47.060 212.898 C 46.817 213.137,46.404 213.333,46.142 213.333 C 45.879 213.333,45.105 213.633,44.420 214.000 C 43.736 214.367,42.973 214.667,42.725 214.667 C 40.910 214.667,32.667 220.374,32.667 221.631 C 32.667 221.834,32.526 222.000,32.355 222.000 C 32.183 222.000,31.705 222.600,31.293 223.333 C 30.881 224.067,30.413 224.667,30.252 224.667 C 30.092 224.667,30.053 224.817,30.167 225.000 C 30.280 225.183,30.231 225.333,30.059 225.333 C 29.757 225.333,29.222 226.563,29.297 227.083 C 29.317 227.221,29.216 227.333,29.073 227.333 C 28.832 227.333,28.252 228.998,27.795 231.000 C 27.247 233.398,27.469 243.841,28.106 245.625 C 28.740 247.402,30.505 250.333,30.940 250.334 C 31.065 250.334,31.602 250.709,32.135 251.167 C 32.668 251.625,33.355 252.000,33.663 252.000 C 33.971 252.000,34.325 252.103,34.451 252.228 C 35.393 253.171,41.431 253.597,42.703 252.811 C 42.939 252.665,43.441 252.515,43.817 252.479 C 45.376 252.328,47.872 251.957,48.414 251.796 C 48.733 251.701,49.371 251.558,49.830 251.478 C 50.290 251.399,51.079 251.251,51.583 251.150 C 52.673 250.933,53.548 250.801,56.000 250.484 C 57.008 250.353,57.908 250.148,58.000 250.028 C 58.092 249.908,58.467 249.816,58.833 249.824 C 59.200 249.831,60.025 249.726,60.667 249.589 C 61.308 249.453,62.583 249.250,63.500 249.139 C 64.417 249.029,65.767 248.787,66.500 248.602 C 67.233 248.417,68.171 248.265,68.583 248.264 C 68.996 248.263,69.333 248.142,69.333 247.994 C 69.333 247.846,69.712 247.767,70.175 247.818 C 70.638 247.869,71.091 247.790,71.182 247.642 C 71.273 247.495,71.637 247.430,71.991 247.498 C 72.344 247.566,73.129 247.489,73.734 247.326 C 75.271 246.911,76.564 246.681,78.500 246.477 C 79.417 246.380,80.392 246.217,80.667 246.115 C 80.942 246.013,81.692 245.860,82.333 245.775 C 82.975 245.690,84.025 245.481,84.667 245.312 C 85.308 245.142,86.396 245.003,87.083 245.002 C 87.771 245.001,88.333 244.887,88.333 244.750 C 88.333 244.612,88.671 244.489,89.083 244.476 C 91.230 244.406,94.667 243.254,94.667 242.605 C 94.667 242.456,94.962 242.333,95.322 242.333 C 96.306 242.333,100.537 237.839,101.531 235.738 C 104.155 230.190,104.012 204.948,101.351 204.061 C 101.156 203.996,101.073 203.818,101.168 203.665 C 101.262 203.512,100.813 202.829,100.170 202.147 C 99.085 200.996,98.591 200.041,99.312 200.487 C 99.484 200.593,100.271 200.522,101.062 200.330 C 101.853 200.138,102.800 199.908,103.167 199.819 C 103.533 199.730,104.349 199.587,104.980 199.502 C 105.610 199.417,106.660 198.918,107.313 198.394 C 108.910 197.110,109.534 195.818,109.639 193.574 C 109.688 192.516,126.474 192.743,128.036 193.823 C 130.391 195.451,131.359 198.731,130.000 200.475 C 127.865 203.214,127.441 203.333,119.847 203.333 C 116.692 203.333,113.999 203.446,113.861 203.583 C 113.724 203.721,113.474 203.852,113.306 203.875 C 113.138 203.898,112.870 203.935,112.712 203.958 C 112.553 203.981,111.916 204.448,111.295 204.995 C 110.674 205.542,110.087 205.992,109.989 205.995 C 108.275 206.046,107.736 212.308,109.212 215.034 C 110.037 216.560,113.333 219.291,113.333 218.449 C 113.333 218.341,113.528 218.413,113.765 218.610 C 114.669 219.360,137.576 219.125,137.985 218.362 C 139.037 216.396,138.560 216.315,126.185 216.342 C 114.273 216.368,114.406 216.375,113.731 215.747 C 113.483 215.516,113.142 215.412,112.973 215.517 C 112.805 215.621,112.664 215.510,112.661 215.270 C 112.658 215.030,112.283 214.481,111.829 214.050 C 111.374 213.618,111.079 213.141,111.173 212.989 C 111.267 212.837,111.218 212.635,111.065 212.540 C 110.511 212.198,111.020 209.538,111.907 208.136 C 112.402 207.354,112.913 206.780,113.043 206.860 C 113.173 206.940,113.488 206.798,113.742 206.544 C 114.100 206.186,115.664 206.068,120.674 206.022 C 124.673 205.985,127.308 205.826,127.572 205.607 C 127.807 205.411,128.000 205.349,128.000 205.468 C 128.000 206.779,132.044 202.662,132.813 200.568 C 133.537 198.596,132.911 194.000,131.918 194.000 C 131.780 194.000,131.666 193.813,131.666 193.583 C 131.665 193.354,131.216 192.867,130.667 192.500 C 130.118 192.133,129.668 191.721,129.668 191.583 C 129.667 191.446,129.404 191.329,129.083 191.323 C 128.762 191.317,128.221 191.101,127.880 190.842 C 127.385 190.468,125.497 190.367,118.565 190.344 C 113.784 190.329,109.835 190.280,109.791 190.236 C 109.747 190.191,109.632 189.501,109.535 188.701 C 109.247 186.311,106.254 183.335,104.488 183.682 C 104.311 183.717,104.092 183.717,104.000 183.681 C 103.908 183.646,103.496 183.553,103.083 183.475 C 102.671 183.397,101.996 183.269,101.583 183.191 C 101.171 183.113,100.683 183.036,100.500 183.020 C 99.286 182.911,99.292 182.385,100.529 180.627 C 101.222 179.640,101.812 178.608,101.840 178.333 C 101.868 178.058,102.175 177.233,102.523 176.500 C 103.564 174.308,103.572 153.168,102.534 150.167 C 102.470 149.983,102.406 149.717,102.392 149.574 C 102.216 147.838,96.993 141.364,95.750 141.341 C 95.521 141.337,95.333 141.183,95.333 141.000 C 95.333 140.817,95.033 140.667,94.667 140.667 C 94.300 140.667,94.000 140.528,94.000 140.359 C 94.000 140.059,92.161 139.335,90.833 139.114 C 90.467 139.052,89.342 138.835,88.333 138.630 C 87.325 138.425,86.050 138.213,85.500 138.159 C 84.950 138.105,84.050 137.961,83.500 137.839 C 82.950 137.717,82.177 137.569,81.783 137.509 C 81.389 137.449,80.789 137.317,80.450 137.216 C 79.909 137.056,79.268 136.949,76.167 136.504 C 75.436 136.399,73.728 136.085,72.167 135.768 C 71.617 135.656,70.754 135.557,70.250 135.546 C 69.746 135.536,69.333 135.434,69.333 135.320 C 69.333 135.205,69.146 135.104,68.917 135.095 C 68.072 135.062,65.740 134.691,62.167 134.021 C 54.611 132.606,51.973 132.161,49.327 131.860 C 49.049 131.828,48.674 131.722,48.494 131.626 C 48.314 131.529,47.792 131.461,47.333 131.475 C 46.875 131.489,46.425 131.406,46.333 131.292 C 46.242 131.178,45.452 130.998,44.580 130.893 C 43.707 130.787,42.850 130.614,42.677 130.506 C 42.328 130.291,37.450 129.995,37.267 130.178 M41.500 133.130 C 43.810 133.524,45.469 133.733,46.417 133.748 C 46.921 133.756,47.333 133.870,47.333 134.002 C 47.333 134.134,47.671 134.216,48.083 134.184 C 48.496 134.152,48.981 134.203,49.161 134.297 C 49.341 134.391,49.716 134.496,49.994 134.531 C 50.638 134.610,52.868 135.008,53.792 135.208 C 54.182 135.293,55.700 135.572,57.167 135.829 C 61.555 136.599,61.774 136.639,63.341 136.968 C 64.170 137.142,65.445 137.352,66.174 137.434 C 66.903 137.516,68.925 137.854,70.667 138.184 C 72.408 138.515,74.246 138.796,74.750 138.809 C 75.254 138.822,75.667 138.946,75.667 139.083 C 75.667 139.221,75.779 139.308,75.917 139.276 C 76.054 139.245,76.842 139.330,77.667 139.466 C 78.492 139.601,79.617 139.786,80.167 139.876 C 80.717 139.966,81.542 140.069,82.000 140.103 C 82.458 140.138,82.908 140.265,83.000 140.385 C 83.092 140.505,83.917 140.685,84.833 140.785 C 85.750 140.886,87.025 141.063,87.667 141.180 C 88.308 141.297,89.208 141.439,89.667 141.497 C 90.125 141.554,90.575 141.633,90.667 141.673 C 90.758 141.713,90.946 141.728,91.083 141.706 C 91.221 141.684,91.333 141.787,91.333 141.933 C 91.333 142.080,91.886 142.399,92.561 142.643 C 93.914 143.133,94.213 143.340,95.818 144.903 C 96.423 145.491,97.035 145.866,97.179 145.736 C 97.323 145.606,97.332 145.689,97.199 145.919 C 97.060 146.160,97.167 146.418,97.452 146.528 C 97.724 146.632,98.366 147.569,98.878 148.609 C 99.904 150.694,99.856 150.555,100.311 152.667 C 100.648 154.231,100.602 173.658,100.258 174.833 C 100.151 175.200,100.011 175.725,99.948 176.000 C 99.885 176.275,99.757 176.575,99.663 176.667 C 99.570 176.758,99.196 177.433,98.832 178.167 C 98.468 178.900,97.524 180.137,96.735 180.917 C 95.945 181.696,95.420 182.338,95.566 182.343 C 95.713 182.349,95.569 182.507,95.247 182.695 C 94.616 183.062,93.674 184.978,93.458 186.333 C 93.291 187.386,93.255 196.662,93.416 197.333 C 93.802 198.941,95.118 201.036,96.617 202.430 C 97.561 203.308,98.334 204.133,98.335 204.263 C 98.335 204.394,98.666 205.025,99.069 205.667 C 99.472 206.308,99.828 206.946,99.859 207.083 C 99.891 207.221,99.947 207.371,99.984 207.417 C 100.797 208.425,100.825 229.435,100.017 231.784 C 99.671 232.789,99.455 233.677,99.536 233.758 C 99.617 233.839,99.454 234.095,99.175 234.327 C 98.895 234.559,98.667 234.889,98.667 235.060 C 98.667 236.051,95.676 239.045,93.667 240.066 C 92.475 240.671,91.408 241.292,91.296 241.445 C 91.184 241.598,90.959 241.707,90.796 241.687 C 90.259 241.621,87.514 242.086,86.743 242.373 C 86.326 242.529,85.060 242.742,83.929 242.848 C 82.797 242.953,81.741 243.120,81.582 243.219 C 81.423 243.317,80.814 243.469,80.230 243.555 C 77.084 244.020,71.036 245.044,67.667 245.682 C 65.558 246.081,63.533 246.452,63.167 246.507 C 62.800 246.562,62.050 246.701,61.500 246.818 C 60.950 246.934,59.975 247.097,59.333 247.181 C 58.692 247.264,57.792 247.422,57.333 247.531 C 56.875 247.640,56.125 247.779,55.667 247.841 C 55.208 247.902,53.858 248.125,52.667 248.335 C 51.475 248.546,50.275 248.727,50.000 248.738 C 49.725 248.749,49.313 248.905,49.083 249.086 C 48.854 249.267,48.667 249.342,48.667 249.252 C 48.667 249.163,48.029 249.221,47.250 249.382 C 46.471 249.543,45.027 249.745,44.041 249.831 C 43.056 249.917,42.069 250.137,41.849 250.320 C 41.500 250.610,37.434 250.558,36.000 250.245 C 35.093 250.047,32.798 248.416,32.250 247.581 C 31.955 247.130,31.467 246.514,31.166 246.213 C 30.865 245.913,30.723 245.667,30.850 245.667 C 30.978 245.667,30.922 245.475,30.727 245.240 C 29.538 243.806,29.681 233.480,30.939 229.917 C 31.312 228.862,31.515 227.998,31.391 227.995 C 31.268 227.992,31.318 227.880,31.503 227.745 C 32.080 227.325,33.751 224.577,33.280 224.823 C 33.034 224.952,33.309 224.607,33.890 224.057 C 34.471 223.507,34.881 222.992,34.800 222.912 C 34.720 222.831,35.257 222.348,35.994 221.838 C 36.731 221.327,37.333 220.790,37.333 220.644 C 37.333 220.499,39.546 219.284,42.250 217.946 C 44.954 216.607,47.217 215.397,47.278 215.256 C 47.339 215.115,47.678 215.000,48.032 215.000 C 48.386 215.000,48.936 214.851,49.255 214.669 C 50.459 213.981,55.177 211.897,55.417 211.947 C 55.554 211.976,55.667 211.850,55.667 211.667 C 55.667 211.483,55.779 211.370,55.917 211.415 C 57.351 211.881,61.702 206.507,62.225 203.622 C 62.626 201.413,62.721 183.556,62.343 181.500 C 61.790 178.496,61.728 178.181,61.655 178.000 C 61.618 177.908,61.605 177.721,61.627 177.583 C 61.649 177.446,61.534 177.333,61.372 177.333 C 61.210 177.333,60.983 177.071,60.867 176.750 C 60.249 175.041,58.086 172.667,57.146 172.667 C 56.882 172.667,56.667 172.543,56.667 172.393 C 56.667 172.242,55.879 171.780,54.917 171.366 C 53.954 170.952,52.567 170.294,51.833 169.905 C 51.100 169.516,50.463 169.228,50.417 169.265 C 50.371 169.302,49.363 168.874,48.176 168.313 C 46.990 167.753,45.955 167.340,45.878 167.397 C 45.800 167.454,45.434 167.226,45.064 166.891 C 44.694 166.557,44.191 166.248,43.946 166.205 C 43.701 166.162,42.834 165.798,42.021 165.397 C 41.207 164.995,40.345 164.667,40.104 164.667 C 39.863 164.667,39.667 164.517,39.667 164.333 C 39.667 164.150,39.437 164.000,39.156 164.000 C 38.875 164.000,38.559 163.775,38.454 163.500 C 38.348 163.225,38.091 162.998,37.881 162.995 C 37.671 162.992,36.787 162.257,35.917 161.362 C 35.046 160.466,34.327 159.831,34.319 159.950 C 34.310 160.069,33.990 159.567,33.606 158.833 C 33.222 158.100,32.806 157.425,32.681 157.333 C 29.722 155.168,28.900 136.333,31.764 136.333 C 31.915 136.333,31.947 136.183,31.833 136.000 C 31.720 135.817,31.793 135.667,31.996 135.667 C 32.199 135.667,32.733 135.270,33.183 134.785 C 33.632 134.300,34.002 134.037,34.005 134.201 C 34.008 134.366,34.130 134.311,34.277 134.080 C 34.936 133.042,38.350 132.593,41.500 133.130 M72.814 145.795 C 70.808 146.194,67.384 147.744,66.929 148.460 C 66.798 148.665,66.553 148.833,66.385 148.833 C 65.645 148.833,62.866 152.296,61.741 154.621 C 59.827 158.579,60.252 168.667,62.334 168.667 C 62.472 168.667,62.768 169.106,62.990 169.643 C 63.484 170.836,66.219 173.667,66.877 173.667 C 67.139 173.667,67.438 173.886,67.541 174.154 C 67.696 174.558,68.287 174.895,69.333 175.179 C 69.848 175.319,70.918 175.761,71.484 176.069 C 73.716 177.283,82.580 176.078,84.000 174.367 C 84.092 174.257,84.692 173.803,85.333 173.359 C 85.975 172.915,86.725 172.256,87.000 171.894 C 87.275 171.533,87.801 170.914,88.168 170.518 C 88.738 169.906,89.363 168.777,90.689 165.970 C 90.891 165.542,91.368 162.696,91.493 161.167 C 91.928 155.864,86.029 147.289,81.455 146.577 C 81.113 146.524,80.673 146.380,80.477 146.258 C 79.362 145.561,75.241 145.312,72.814 145.795 M80.051 148.956 C 80.535 149.140,81.022 149.200,81.132 149.090 C 81.243 148.979,81.333 149.037,81.333 149.219 C 81.333 149.400,82.008 149.886,82.833 150.298 C 83.658 150.710,84.333 151.151,84.333 151.279 C 84.333 151.407,85.042 152.251,85.908 153.155 C 86.774 154.059,87.262 154.668,86.991 154.509 C 86.628 154.294,86.644 154.386,87.053 154.859 C 88.247 156.241,89.191 161.546,88.560 163.333 C 88.463 163.608,88.205 164.433,87.987 165.167 C 86.809 169.125,82.852 172.810,78.919 173.612 C 77.358 173.930,72.951 173.871,72.167 173.521 C 71.800 173.358,71.425 173.205,71.333 173.180 C 70.765 173.031,68.342 171.617,68.166 171.333 C 68.049 171.144,67.777 171.091,67.560 171.215 C 67.344 171.339,67.270 171.326,67.396 171.185 C 67.522 171.045,67.040 170.322,66.325 169.577 C 65.182 168.389,64.010 166.499,63.795 165.500 C 63.756 165.317,63.511 164.362,63.252 163.377 C 62.815 161.721,63.090 157.485,63.683 156.750 C 63.720 156.704,63.769 156.536,63.792 156.375 C 63.871 155.820,66.046 152.672,67.030 151.688 C 70.037 148.681,76.024 147.425,80.051 148.956 M74.987 153.516 C 74.769 153.779,74.575 155.201,74.548 156.743 L 74.500 159.500 71.712 159.597 C 68.689 159.703,67.874 160.109,68.060 161.416 C 68.161 162.129,68.332 162.172,71.437 162.262 L 74.707 162.358 74.664 165.096 C 74.607 168.705,74.587 168.565,75.214 168.805 C 76.693 169.373,77.000 168.800,77.000 165.478 L 77.000 162.333 80.155 162.333 C 85.524 162.333,85.625 159.824,80.262 159.695 C 76.798 159.611,76.941 159.754,77.044 156.477 C 77.092 154.942,77.047 153.603,76.944 153.500 C 76.515 153.070,75.349 153.080,74.987 153.516 M98.000 185.225 C 98.000 185.121,98.712 185.241,99.583 185.492 C 100.454 185.743,101.692 186.024,102.333 186.116 C 102.975 186.208,103.976 186.431,104.558 186.611 C 105.140 186.792,105.689 186.866,105.778 186.778 C 105.867 186.689,106.038 186.928,106.159 187.308 C 106.279 187.689,106.499 188.000,106.646 188.000 C 106.994 188.000,106.914 195.035,106.560 195.586 C 105.985 196.481,104.339 197.078,101.167 197.543 C 100.433 197.651,99.286 197.925,98.618 198.152 C 96.972 198.711,96.456 198.333,95.984 196.226 C 95.060 192.097,96.168 183.895,97.500 185.000 C 97.775 185.228,98.000 185.330,98.000 185.225 M75.103 185.596 C 74.500 185.979,74.434 188.982,75.020 189.353 C 76.207 190.104,76.863 189.538,77.079 187.574 C 77.284 185.701,76.373 184.788,75.103 185.596 M74.872 193.938 C 73.864 195.569,74.822 198.308,76.227 197.814 C 77.351 197.419,77.642 194.522,76.615 193.972 C 75.908 193.594,75.094 193.578,74.872 193.938 M74.919 207.525 C 74.753 207.692,74.016 207.892,73.269 207.974 C 72.744 208.032,70.715 210.227,70.470 211.000 C 69.794 213.142,69.760 214.096,70.300 215.733 C 70.728 217.028,72.220 218.616,73.194 218.812 C 73.545 218.883,74.246 219.100,74.750 219.295 C 76.938 220.142,80.038 218.593,81.244 216.050 C 82.722 212.936,80.614 208.325,77.505 207.868 C 77.238 207.829,76.915 207.693,76.787 207.565 C 76.508 207.285,75.188 207.257,74.919 207.525 M77.333 210.500 C 77.333 210.139,78.885 211.834,78.935 212.250 C 79.377 215.880,77.484 217.641,74.480 216.395 C 72.659 215.639,71.924 212.610,73.242 211.291 C 73.901 210.632,76.136 210.049,76.748 210.377 C 77.070 210.549,77.333 210.605,77.333 210.500 M63.000 218.369 C 59.471 219.801,58.245 225.176,60.858 227.762 C 61.913 228.806,62.667 229.392,62.667 229.168 C 62.667 229.063,62.999 229.154,63.405 229.372 C 64.329 229.866,67.000 230.047,67.000 229.615 C 67.000 229.438,67.136 229.378,67.303 229.481 C 67.734 229.748,68.700 229.323,68.478 228.965 C 68.377 228.801,68.495 228.667,68.740 228.667 C 69.160 228.667,70.333 227.542,70.333 227.139 C 70.333 227.036,70.558 226.727,70.833 226.452 C 71.670 225.616,71.488 222.489,70.505 220.811 C 69.179 218.549,65.504 217.353,63.000 218.369 M83.500 218.740 C 82.767 219.158,82.116 219.615,82.054 219.756 C 81.991 219.897,81.729 220.223,81.472 220.481 C 80.438 221.515,79.912 225.367,80.735 225.876 C 80.887 225.969,80.925 226.186,80.819 226.356 C 80.714 226.527,80.786 226.667,80.980 226.667 C 81.174 226.667,81.333 226.865,81.333 227.107 C 81.333 227.770,82.866 228.993,84.333 229.500 C 84.425 229.532,84.770 229.676,85.099 229.821 C 87.892 231.046,92.333 227.506,92.333 224.053 C 92.333 222.105,89.994 218.390,88.724 218.321 C 88.601 218.315,87.675 218.235,86.667 218.145 C 85.172 218.010,84.587 218.120,83.500 218.740 M66.994 221.216 C 70.235 223.130,68.653 227.417,64.858 227.007 C 63.986 226.913,62.772 226.084,62.499 225.397 C 61.291 222.346,64.249 219.595,66.994 221.216 M88.516 221.549 C 88.965 222.034,89.357 222.746,89.386 223.132 C 89.436 223.799,89.423 224.027,89.259 225.430 C 89.093 226.848,85.910 227.843,84.633 226.876 C 83.243 225.824,82.427 223.060,83.339 222.497 C 83.525 222.381,83.577 222.124,83.454 221.925 C 83.331 221.726,83.383 221.658,83.571 221.774 C 83.758 221.890,84.179 221.688,84.507 221.325 C 85.419 220.318,87.482 220.433,88.516 221.549 M73.273 229.029 C 71.362 229.996,69.512 233.127,69.918 234.707 C 69.947 234.821,70.039 235.289,70.122 235.747 C 70.299 236.723,71.042 238.000,71.433 238.000 C 71.583 238.000,71.622 238.135,71.520 238.301 C 70.948 239.227,76.276 240.780,77.500 240.044 C 77.819 239.852,77.990 239.801,78.616 239.708 C 79.064 239.642,80.500 238.310,80.500 237.960 C 80.500 237.785,80.663 237.535,80.862 237.405 C 82.029 236.637,81.958 232.642,80.743 230.756 C 79.425 228.708,75.637 227.832,73.273 229.029 M77.935 232.018 C 79.569 233.297,79.468 235.731,77.730 236.941 C 76.673 237.677,75.333 238.065,75.333 237.635 C 75.333 237.469,75.098 237.333,74.810 237.333 C 74.196 237.333,73.603 236.794,73.021 235.705 C 72.477 234.689,72.839 232.000,73.520 232.000 C 73.784 232.000,74.000 231.841,74.000 231.647 C 74.000 231.453,74.112 231.359,74.250 231.439 C 74.387 231.518,74.787 231.479,75.138 231.351 C 76.150 230.984,76.818 231.143,77.935 232.018 " stroke="none" fill="#f9f9ec" fill-rule="evenodd"></path><path id="path4" d="M240.606 166.916 C 244.881 166.969,251.781 166.969,255.940 166.916 C 260.098 166.863,256.600 166.820,248.167 166.820 C 239.733 166.820,236.331 166.864,240.606 166.916 M301.250 177.916 C 303.862 177.972,308.137 177.972,310.750 177.916 C 313.362 177.860,311.225 177.814,306.000 177.814 C 300.775 177.814,298.637 177.860,301.250 177.916 M284.743 235.230 C 284.701 245.349,284.779 253.697,284.917 253.782 C 285.144 253.922,285.140 240.046,284.908 223.333 C 284.859 219.758,284.784 225.112,284.743 235.230 M158.156 238.167 C 158.156 248.250,158.198 252.423,158.250 247.440 C 158.302 242.457,158.302 234.207,158.250 229.107 C 158.198 224.006,158.156 228.083,158.156 238.167 M174.114 236.833 C 174.115 238.300,174.174 238.859,174.244 238.075 C 174.315 237.291,174.314 236.091,174.242 235.408 C 174.171 234.725,174.113 235.367,174.114 236.833 M250.733 235.581 C 252.328 235.642,255.028 235.643,256.733 235.582 C 258.438 235.521,257.133 235.471,253.833 235.471 C 250.533 235.471,249.138 235.520,250.733 235.581 M322.437 247.249 C 324.968 247.306,329.018 247.306,331.437 247.249 C 333.855 247.192,331.783 247.146,326.833 247.146 C 321.883 247.146,319.905 247.193,322.437 247.249 M344.024 250.500 C 344.024 250.683,344.238 251.208,344.500 251.667 C 344.762 252.125,344.976 252.350,344.976 252.167 C 344.976 251.983,344.762 251.458,344.500 251.000 C 344.238 250.542,344.024 250.317,344.024 250.500 " stroke="none" fill="#fce4ac" fill-rule="evenodd"></path></g></svg>